<svg width="173" height="52" viewBox="0 0 173 52" fill="none" xmlns="http://www.w3.org/2000/svg">
<path d="M0 6.93333C0 3.10416 3.06145 0 6.83794 0H166.162C169.939 0 173 3.10416 173 6.93333V45.0667C173 48.8958 169.939 52 166.162 52H6.83794C3.06145 52 0 48.8958 0 45.0667V6.93333Z" fill="white"/>
<path fill-rule="evenodd" clip-rule="evenodd" d="M0 45.0667V6.93333C0 3.10416 3.06145 0 6.83794 0H166.162C169.939 0 173 3.10416 173 6.93333V45.0667C173 48.8958 169.939 52 166.162 52H6.83794C3.06145 52 0 48.8958 0 45.0667ZM1.02569 45.0667V6.93333C1.02569 3.67854 3.62793 1.04 6.83794 1.04H166.162C169.372 1.04 171.974 3.67853 171.974 6.93333V45.0667C171.974 48.3215 169.372 50.96 166.162 50.96H6.83794C3.62793 50.96 1.02569 48.3215 1.02569 45.0667Z" fill="black" fill-opacity="0.1"/>
<path d="M87.6575 28.2498C84.5788 28.2498 82.0351 30.6876 82.0351 34.0301C82.0351 37.3454 84.5521 39.8105 87.6578 39.8105C90.7631 39.8105 93.2798 37.3726 93.2798 34.0301C93.2798 30.6876 90.7631 28.2498 87.6575 28.2498ZM87.6575 37.5103C85.9704 37.5103 84.4988 36.0579 84.4988 34.0043C84.4988 31.9223 85.9716 30.4983 87.6575 30.4983C89.3434 30.4983 90.8162 31.9223 90.8162 34.0043C90.8162 36.0579 89.3434 37.5103 87.6575 37.5103ZM75.4223 28.2498C72.3166 28.2498 69.7996 30.6876 69.7996 34.0301C69.7996 37.3454 72.3166 39.8105 75.4223 39.8105C78.5276 39.8105 81.0446 37.3726 81.0446 34.0301C81.0446 30.6876 78.5276 28.2498 75.422 28.2498H75.4223ZM75.4223 37.5103C73.7349 37.5103 72.2636 36.0579 72.2636 34.0043C72.2636 31.9223 73.7364 30.4983 75.4223 30.4983C77.1093 30.4983 78.5809 31.9223 78.5809 34.0043C78.5809 36.0579 77.1345 37.5103 75.4223 37.5103ZM60.8844 30.0307V32.4685H66.5597C66.3985 33.8381 65.9447 34.8517 65.2749 35.5372C64.4453 36.3861 63.1601 37.3181 60.8844 37.3181C57.3765 37.3181 54.6734 34.4144 54.6734 30.8253C54.6734 27.2362 57.378 24.2776 60.8844 24.2776C62.7846 24.2776 64.1509 25.0449 65.1682 26.0315L66.8541 24.3049C65.4346 22.9083 63.5344 21.8401 60.8844 21.8401C56.0913 21.8401 52.0752 25.8665 52.0752 30.7707C52.0752 35.6751 56.0913 39.7016 60.8844 39.7016C63.4811 39.7016 65.4094 38.8254 66.9619 37.1807C68.5414 35.5645 69.0234 33.2901 69.0234 31.4549C69.0234 30.8799 68.9703 30.3591 68.8891 29.9206L60.8844 30.0307V30.0307ZM120.374 31.9208C119.919 30.633 118.474 28.2498 115.581 28.2498C112.689 28.2498 110.307 30.5787 110.307 34.0301C110.307 37.2623 112.689 39.8105 115.849 39.8105C118.419 39.8105 119.892 38.1943 120.507 37.2623L118.607 35.9475C117.964 36.9068 117.108 37.5361 115.849 37.5361C114.591 37.5361 113.708 36.9611 113.145 35.7825L120.614 32.5777L120.374 31.9208V31.9208ZM112.77 33.8666C112.717 31.6469 114.458 30.4968 115.688 30.4968C116.679 30.4968 117.482 30.99 117.776 31.73L112.77 33.8666V33.8666ZM106.693 39.4274H109.156V22.4967H106.693V39.4274V39.4274ZM102.678 29.5375H102.598C102.036 28.8521 100.992 28.2498 99.652 28.2498C96.8407 28.2498 94.2973 30.798 94.2973 34.0301C94.2973 37.2623 96.8674 39.7835 99.652 39.7835C100.99 39.7835 102.034 39.1808 102.598 38.4681H102.678V39.29C102.678 41.5098 101.526 42.6869 99.6787 42.6869C98.1792 42.6869 97.2417 41.5641 96.8674 40.6321L94.7262 41.5641C95.3412 43.0984 96.9752 44.9885 99.6787 44.9885C102.57 44.9885 105.007 43.2349 105.007 38.9889V28.6055H102.678V29.5375V29.5375ZM99.8663 37.5103C98.1792 37.5103 96.761 36.0579 96.761 34.0316C96.761 32.0053 98.1804 30.5253 99.8663 30.5253C101.527 30.5253 102.865 32.0053 102.865 34.0316C102.864 36.0306 101.526 37.5103 99.8663 37.5103ZM131.86 22.497H125.97V39.4274H128.433V33.0162H131.86C134.591 33.0162 137.268 30.9885 137.268 27.7566C137.268 24.5245 134.591 22.4967 131.86 22.4967V22.497ZM131.94 30.6618H128.459V24.8527H131.94C133.76 24.8527 134.831 26.4143 134.831 27.7563C134.805 29.0714 133.761 30.6618 131.94 30.6618ZM147.094 28.2225C145.327 28.2225 143.48 29.0171 142.73 30.8253L144.899 31.7573C145.382 30.8253 146.238 30.5241 147.149 30.5241C148.434 30.5241 149.719 31.3184 149.745 32.7151V32.8801C149.29 32.6062 148.354 32.2219 147.175 32.2219C144.82 32.2219 142.436 33.5643 142.436 36.0306C142.436 38.3046 144.364 39.7562 146.506 39.7562C148.166 39.7562 149.076 38.9889 149.638 38.0854H149.718V39.4004H152.1V32.907C152.073 29.9215 149.905 28.2222 147.094 28.2222V28.2225ZM146.8 37.483C145.997 37.483 144.872 37.0715 144.872 36.0591C144.872 34.744 146.263 34.2509 147.468 34.2509C148.539 34.2509 149.048 34.4975 149.718 34.8259C149.53 36.3876 148.218 37.483 146.8 37.483V37.483ZM160.695 28.607L157.883 35.9214H157.803L154.886 28.6067H152.236L156.626 38.8524L154.136 44.5784H156.706L163.425 28.6067H160.694L160.695 28.607ZM138.634 39.4274H141.098V22.4967H138.634V39.4274Z" fill="black"/>
<path d="M56.9162 17.1643C56.1723 17.1643 55.4867 16.9831 54.8594 16.6207C54.2321 16.2583 53.7325 15.7628 53.3605 15.1342C52.9958 14.4982 52.8135 13.7919 52.8135 13.0154C52.8135 12.2388 52.9958 11.5363 53.3605 10.9076C53.7325 10.2716 54.2321 9.77241 54.8594 9.41003C55.4867 9.04765 56.1723 8.86646 56.9162 8.86646C57.507 8.86646 58.0577 8.97369 58.5683 9.18816C59.0789 9.40263 59.5055 9.70215 59.8484 10.0867L58.995 10.952C58.7397 10.6636 58.4334 10.4417 58.076 10.2864C57.7259 10.1311 57.3356 10.0534 56.9053 10.0534C56.402 10.0534 55.9316 10.1755 55.494 10.4195C55.0563 10.6636 54.7062 11.0112 54.4436 11.4623C54.1811 11.9134 54.0498 12.4311 54.0498 13.0154C54.0498 13.5996 54.1811 14.1173 54.4436 14.5684C54.7062 15.0196 55.0563 15.3671 55.494 15.6112C55.9316 15.8553 56.4057 15.9773 56.9162 15.9773C57.383 15.9773 57.7733 15.907 58.0869 15.7665C58.4005 15.626 58.6813 15.4374 58.9293 15.2007C59.0898 15.038 59.2247 14.8347 59.3341 14.5906C59.4508 14.3466 59.5274 14.0803 59.5639 13.7919H56.9053V12.6826H60.7236C60.7601 12.8896 60.7783 13.1041 60.7783 13.326C60.7783 13.8289 60.7017 14.3133 60.5486 14.7792C60.3954 15.2377 60.151 15.6371 59.8155 15.9773C59.0789 16.7686 58.1124 17.1643 56.9162 17.1643Z" fill="black"/>
<path d="M61.9193 9.04395H66.6785V10.2309H63.1447V12.4274H66.3284V13.6033H63.1447V15.7998H66.6785V16.9868H61.9193V9.04395Z" fill="black"/>
<path d="M69.5146 10.2309H67.3264V9.04395H72.9281V10.2309H70.7399V16.9868H69.5146V10.2309Z" fill="black"/>
<path d="M76.1315 9.04395H77.3569V16.9868H76.1315V9.04395Z" fill="black"/>
<path d="M80.4574 10.2309H78.2693V9.04395H83.8709V10.2309H81.6828V16.9868H80.4574V10.2309Z" fill="black"/>
<path d="M90.5258 17.1643C89.7673 17.1643 89.078 16.9831 88.4581 16.6207C87.8381 16.2509 87.3494 15.748 86.992 15.112C86.6419 14.476 86.4668 13.7771 86.4668 13.0154C86.4668 12.2536 86.6419 11.5584 86.992 10.9298C87.3494 10.2938 87.8381 9.7909 88.4581 9.42112C89.078 9.05134 89.7673 8.86646 90.5258 8.86646C91.2844 8.86646 91.97 9.05134 92.5827 9.42112C93.2027 9.7909 93.6914 10.2938 94.0488 10.9298C94.4062 11.5584 94.5848 12.2536 94.5848 13.0154C94.5848 13.7771 94.4062 14.476 94.0488 15.112C93.6987 15.748 93.2136 16.2509 92.5936 16.6207C91.9737 16.9831 91.2844 17.1643 90.5258 17.1643ZM90.5258 15.9773C91.0437 15.9773 91.5178 15.8516 91.9481 15.6001C92.3785 15.3487 92.7176 15.0011 92.9656 14.5573C93.2136 14.1062 93.3376 13.5922 93.3376 13.0154C93.3376 12.4385 93.2136 11.9282 92.9656 11.4845C92.7176 11.0334 92.3785 10.6821 91.9481 10.4306C91.5178 10.1792 91.0437 10.0534 90.5258 10.0534C90.008 10.0534 89.5339 10.1792 89.1036 10.4306C88.6732 10.6821 88.3304 11.0334 88.0751 11.4845C87.8271 11.9282 87.7031 12.4385 87.7031 13.0154C87.7031 13.5922 87.8271 14.1062 88.0751 14.5573C88.3304 15.0011 88.6732 15.3487 89.1036 15.6001C89.5339 15.8516 90.008 15.9773 90.5258 15.9773Z" fill="black"/>
<path d="M95.7116 9.04395H97.1667L100.668 14.8236H100.733L100.668 13.2927V9.04395H101.882V16.9868H100.602L96.926 10.9076H96.8603L96.926 12.4385V16.9868H95.7116V9.04395Z" fill="black"/>
<path d="M35.8331 31.029L30.6035 25.9624L35.829 20.871C39.5613 22.8637 42.4271 24.3862 42.9778 24.6654C44.7561 25.5915 43.8524 26.7837 42.9778 27.2344C42.7885 27.3255 41.2104 28.1657 38.869 29.4121L38.867 29.4132C38.4901 29.6138 38.0935 29.8251 37.6797 30.0456C37.0959 30.3566 36.4779 30.6859 35.8331 31.029Z" fill="#0F1A2A"/>
<path d="M34.8809 31.5355L29.8681 26.6789L13.1174 43C13.3192 42.9412 13.5334 42.8519 13.7622 42.7301C13.9336 42.6393 14.3504 42.4188 14.963 42.0946L14.9995 42.0753C18.4472 40.2509 27.9132 35.2419 34.8809 31.5355Z" fill="#0F1A2A"/>
<path d="M11.7488 42.9004C11.2573 42.5794 11 41.9084 11 41.0609V10.9964C11 10.0592 11.3411 9.48255 11.8135 9.18691L29.1306 25.9644L11.7488 42.9004Z" fill="#0F1A2A"/>
<path d="M13.0955 9L29.866 25.2479L34.8596 20.3824C31.7632 18.7463 14.8803 9.82652 13.7619 9.25033C13.5495 9.12798 13.3231 9.04567 13.0955 9Z" fill="#0F1A2A"/>
</svg>
