<svg width="170" height="52" viewBox="0 0 170 52" fill="none" xmlns="http://www.w3.org/2000/svg">
<g clip-path="url(#clip0_940_19795)">
<path d="M0 6.93333C0 3.10416 3.00369 0 6.70893 0H163.027C166.732 0 169.736 3.10416 169.736 6.93333V45.0667C169.736 48.8958 166.732 52 163.027 52H6.70893C3.00369 52 0 48.8958 0 45.0667V6.93333Z" fill="white"/>
<path fill-rule="evenodd" clip-rule="evenodd" d="M0 45.0667V6.93333C0 3.10416 3.00369 0 6.70893 0H163.027C166.732 0 169.736 3.10416 169.736 6.93333V45.0667C169.736 48.8958 166.732 52 163.027 52H6.70893C3.00369 52 0 48.8958 0 45.0667ZM1.00634 45.0667V6.93333C1.00634 3.67854 3.55947 1.04 6.70893 1.04H163.027C166.176 1.04 168.73 3.67853 168.73 6.93333V45.0667C168.73 48.3215 166.176 50.96 163.027 50.96H6.70893C3.55948 50.96 1.00634 48.3215 1.00634 45.0667Z" fill="black" fill-opacity="0.1"/>
<path d="M38.3561 27.059C38.3388 24.0113 39.6749 21.7144 42.3732 20.0207C40.864 17.7864 38.5809 16.5574 35.5713 16.3206C32.7217 16.0882 29.604 18.0366 28.4625 18.0366C27.2561 18.0366 24.4973 16.401 22.3266 16.401C17.8468 16.4725 13.0859 20.0922 13.0859 27.4567C13.0859 29.633 13.4708 31.8808 14.2405 34.1956C15.2696 37.2433 18.9797 44.7106 22.8498 44.5899C24.8735 44.5408 26.3048 43.1063 28.9381 43.1063C31.4937 43.1063 32.8169 44.5899 35.0741 44.5899C38.9787 44.5318 42.3342 37.7438 43.3115 34.6872C38.075 32.1355 38.3561 27.2154 38.3561 27.059V27.059ZM33.8114 13.4293C36.0037 10.7391 35.8048 8.29026 35.74 7.40991C33.8028 7.5261 31.5629 8.77288 30.2873 10.3057C28.8819 11.9502 28.056 13.9834 28.2333 16.2759C30.3262 16.4413 32.2374 15.3285 33.8114 13.4293V13.4293Z" fill="black"/>
<path d="M61.9755 37.6299H59.7546L58.538 33.6609H54.3094L53.1505 37.6299H50.9883L55.1778 24.1177H57.7654L61.9755 37.6299ZM58.1713 31.9958L57.0711 28.4675C56.9547 28.107 56.7366 27.2582 56.4149 25.922H56.3758C56.2477 26.4967 56.0413 27.3455 55.7577 28.4675L54.6771 31.9958H58.1713Z" fill="black"/>
<path d="M72.7495 32.6385C72.7495 34.2956 72.3182 35.6054 71.4556 36.5669C70.6831 37.4228 69.7237 37.8503 68.5785 37.8503C67.3424 37.8503 66.4544 37.3893 65.9136 36.4674H65.8745V41.5999H63.7895V31.0942C63.7895 30.0525 63.7631 28.9833 63.7123 27.8868H65.5459L65.6623 29.4311H65.7014C66.3967 28.2675 67.4519 27.6867 68.868 27.6867C69.975 27.6867 70.8992 28.1406 71.6385 29.0493C72.3798 29.9591 72.7495 31.1551 72.7495 32.6385ZM70.6254 32.7177C70.6254 31.7694 70.42 30.9876 70.0073 30.3723C69.5565 29.7306 68.9511 29.4098 68.1922 29.4098C67.6778 29.4098 67.2104 29.5885 66.7928 29.9408C66.3742 30.2962 66.1004 30.7602 65.9723 31.3348C65.9078 31.6029 65.8755 31.8222 65.8755 31.9948V33.6194C65.8755 34.3281 66.0848 34.9261 66.5033 35.4145C66.9219 35.9029 67.4656 36.1465 68.1345 36.1465C68.9198 36.1465 69.531 35.8318 69.9682 35.2043C70.4063 34.5758 70.6254 33.7473 70.6254 32.7177Z" fill="black"/>
<path d="M83.5434 32.6385C83.5434 34.2956 83.1121 35.6054 82.2486 36.5669C81.477 37.4228 80.5176 37.8503 79.3724 37.8503C78.1363 37.8503 77.2484 37.3893 76.7085 36.4674H76.6694V41.5999H74.5844V31.0942C74.5844 30.0525 74.558 28.9833 74.5072 27.8868H76.3408L76.4572 29.4311H76.4963C77.1907 28.2675 78.2459 27.6867 79.6629 27.6867C80.769 27.6867 81.6931 28.1406 82.4344 29.0493C83.1727 29.9591 83.5434 31.1551 83.5434 32.6385ZM81.4193 32.7177C81.4193 31.7694 81.2129 30.9876 80.8002 30.3723C80.3494 29.7306 79.746 29.4098 78.9862 29.4098C78.4708 29.4098 78.0043 29.5885 77.5857 29.9408C77.1672 30.2962 76.8943 30.7602 76.7662 31.3348C76.7027 31.6029 76.6694 31.8222 76.6694 31.9948V33.6194C76.6694 34.3281 76.8787 34.9261 77.2953 35.4145C77.7139 35.9018 78.2576 36.1465 78.9285 36.1465C79.7138 36.1465 80.325 35.8318 80.7621 35.2043C81.2002 34.5758 81.4193 33.7473 81.4193 32.7177Z" fill="black"/>
<path d="M95.6114 33.8408C95.6114 34.9902 95.227 35.9253 94.4554 36.6472C93.6076 37.4361 92.4272 37.8301 90.9104 37.8301C89.51 37.8301 88.3873 37.5498 87.5375 36.9884L88.0206 35.1841C88.9359 35.7588 89.9403 36.0471 91.0346 36.0471C91.8199 36.0471 92.4311 35.8623 92.8702 35.4948C93.3073 35.1272 93.5254 34.6338 93.5254 34.0185C93.5254 33.4702 93.3455 33.0082 92.9846 32.6336C92.6257 32.2589 92.0262 31.9106 91.1891 31.5888C88.9105 30.7065 87.7722 29.4139 87.7722 27.7142C87.7722 26.6035 88.1712 25.6927 88.9702 24.984C89.7662 24.2743 90.8283 23.9199 92.1563 23.9199C93.3406 23.9199 94.3244 24.1342 95.1097 24.5616L94.5884 26.3263C93.855 25.912 93.0257 25.7049 92.0976 25.7049C91.3642 25.7049 90.7911 25.8927 90.3804 26.2664C90.0332 26.6004 89.8591 27.0076 89.8591 27.4899C89.8591 28.0239 90.0576 28.4656 90.4566 28.8128C90.8038 29.1337 91.4346 29.4809 92.3499 29.8556C93.4697 30.3237 94.2921 30.8709 94.8212 31.4984C95.3483 32.1239 95.6114 32.9067 95.6114 33.8408Z" fill="black"/>
<path d="M102.505 29.5115H100.206V34.242C100.206 35.4451 100.611 36.0462 101.423 36.0462C101.796 36.0462 102.105 36.0127 102.349 35.9457L102.407 37.5895C101.996 37.7489 101.455 37.8292 100.785 37.8292C99.9619 37.8292 99.3184 37.5682 98.8539 37.0473C98.3913 36.5255 98.1586 35.6502 98.1586 34.4207V29.5095H96.7895V27.8849H98.1586V26.101L100.206 25.4593V27.8849H102.505V29.5115Z" fill="black"/>
<path d="M112.874 32.6781C112.874 34.1758 112.461 35.4053 111.638 36.3669C110.774 37.3568 109.628 37.8503 108.199 37.8503C106.822 37.8503 105.726 37.3761 104.908 36.4278C104.091 35.4795 103.682 34.2824 103.682 32.8396C103.682 31.3298 104.103 30.0931 104.947 29.1316C105.789 28.169 106.925 27.6878 108.354 27.6878C109.731 27.6878 110.839 28.1619 111.675 29.1113C112.475 30.0322 112.874 31.2211 112.874 32.6781ZM110.711 32.7482C110.711 31.8496 110.526 31.079 110.151 30.4363C109.714 29.6585 109.089 29.2707 108.279 29.2707C107.441 29.2707 106.805 29.6595 106.368 30.4363C105.993 31.08 105.808 31.8628 105.808 32.7888C105.808 33.6874 105.993 34.458 106.368 35.0997C106.818 35.8775 107.448 36.2653 108.261 36.2653C109.057 36.2653 109.682 35.8694 110.133 35.0794C110.517 34.4245 110.711 33.6458 110.711 32.7482Z" fill="black"/>
<path d="M119.651 29.7905C119.444 29.7509 119.224 29.7306 118.994 29.7306C118.26 29.7306 117.693 30.018 117.294 30.5936C116.947 31.1013 116.773 31.743 116.773 32.5177V37.6299H114.689L114.708 30.9551C114.708 29.8321 114.682 28.8097 114.63 27.8878H116.446L116.522 29.7519H116.58C116.8 29.1113 117.147 28.5955 117.623 28.2086C118.087 27.8604 118.589 27.6867 119.13 27.6867C119.322 27.6867 119.496 27.7009 119.651 27.7263V29.7905Z" fill="black"/>
<path d="M128.975 32.2975C128.975 32.6853 128.951 33.0123 128.899 33.2793H122.644C122.668 34.2418 122.97 34.9779 123.551 35.4856C124.078 35.9395 124.76 36.1669 125.597 36.1669C126.523 36.1669 127.368 36.0136 128.128 35.7059L128.455 37.2086C127.567 37.6107 126.518 37.8107 125.309 37.8107C123.853 37.8107 122.711 37.366 121.88 36.4776C121.051 35.5892 120.635 34.3962 120.635 32.8995C120.635 31.4304 121.021 30.2069 121.795 29.2311C122.605 28.1894 123.699 27.6685 125.076 27.6685C126.428 27.6685 127.452 28.1894 128.148 29.2311C128.698 30.0586 128.975 31.0821 128.975 32.2975ZM126.987 31.736C127.001 31.0943 126.865 30.5399 126.582 30.0718C126.221 29.4697 125.667 29.1692 124.92 29.1692C124.239 29.1692 123.684 29.4626 123.261 30.0515C122.914 30.5196 122.707 31.0811 122.644 31.735H126.987V31.736Z" fill="black"/>
<path d="M57.7463 15.0314C57.7463 16.4919 57.3244 17.5914 56.4818 18.3297C55.7013 19.011 54.5922 19.3522 53.1555 19.3522C52.4432 19.3522 51.8336 19.32 51.3232 19.2554V11.2751C51.989 11.1634 52.7061 11.1063 53.4806 11.1063C54.8491 11.1063 55.8806 11.4153 56.5762 12.0333C57.3555 12.7319 57.7463 13.7309 57.7463 15.0314ZM56.4256 15.0673C56.4256 14.1205 56.1842 13.3946 55.7013 12.8883C55.2184 12.3832 54.5133 12.1301 53.5846 12.1301C53.1902 12.1301 52.8543 12.1574 52.5758 12.2145V18.2813C52.73 18.3061 53.0121 18.3173 53.422 18.3173C54.3806 18.3173 55.1204 18.0406 55.6416 17.4871C56.1627 16.9337 56.4256 16.1271 56.4256 15.0673Z" fill="black"/>
<path d="M64.7492 16.3072C64.7492 17.2069 64.5018 17.944 64.0069 18.5223C63.4882 19.1167 62.801 19.4132 61.9428 19.4132C61.1157 19.4132 60.4572 19.1291 59.9659 18.5583C59.4759 17.9887 59.2309 17.2702 59.2309 16.404C59.2309 15.4982 59.4831 14.7548 59.9898 14.1778C60.4966 13.6008 61.1779 13.3117 62.036 13.3117C62.8631 13.3117 63.5277 13.5958 64.0308 14.1654C64.5089 14.7189 64.7492 15.4336 64.7492 16.3072ZM63.45 16.3494C63.45 15.8096 63.3376 15.3468 63.1141 14.9608C62.8512 14.4943 62.4771 14.261 61.9906 14.261C61.4874 14.261 61.105 14.4943 60.842 14.9608C60.6173 15.3468 60.5062 15.8171 60.5062 16.373C60.5062 16.9128 60.6185 17.3757 60.842 17.7616C61.1133 18.2282 61.491 18.4615 61.9787 18.4615C62.4567 18.4615 62.832 18.2244 63.1022 17.7492C63.334 17.3558 63.45 16.8892 63.45 16.3494Z" fill="black"/>
<path d="M74.1391 13.4307L72.3762 19.2804H71.2288L70.4985 16.7402C70.3132 16.1061 70.1626 15.4757 70.0455 14.8503H70.0228C69.914 15.4931 69.7634 16.1223 69.5698 16.7402L68.7941 19.2804H67.6336L65.9758 13.4307H67.263L67.9001 16.2116C68.0543 16.8693 68.181 17.496 68.2826 18.0891H68.3053C68.3985 17.6002 68.5527 16.9773 68.7702 16.224L69.5698 13.432H70.5905L71.3566 16.1645C71.5419 16.8308 71.6925 17.4724 71.8084 18.0904H71.8431C71.928 17.4885 72.0558 16.847 72.2256 16.1645L72.9092 13.432H74.1391V13.4307Z" fill="black"/>
<path d="M80.6322 19.2804H79.3797V15.93C79.3797 14.8975 79.002 14.3813 78.2442 14.3813C77.8725 14.3813 77.5725 14.5228 77.3394 14.8069C77.1088 15.0911 76.9916 15.4261 76.9916 15.8096V19.2792H75.7391V15.1023C75.7391 14.5885 75.7235 14.0314 75.6936 13.4283H76.7944L76.853 14.3428H76.8877C77.0335 14.0587 77.251 13.8241 77.5367 13.6367C77.8761 13.4183 78.2562 13.3079 78.6721 13.3079C79.198 13.3079 79.6354 13.4841 79.9833 13.8378C80.4159 14.2709 80.6322 14.9174 80.6322 15.7761V19.2804Z" fill="black"/>
<path d="M84.0862 19.2804H82.8348V10.7466H84.0862V19.2804Z" fill="black"/>
<path d="M91.4607 16.3072C91.4607 17.2069 91.2133 17.944 90.7185 18.5223C90.1997 19.1167 89.5113 19.4132 88.6543 19.4132C87.826 19.4132 87.1675 19.1291 86.6774 18.5583C86.1874 17.9887 85.9424 17.2702 85.9424 16.404C85.9424 15.4982 86.1946 14.7548 86.7013 14.1778C87.2081 13.6008 87.8894 13.3117 88.7464 13.3117C89.5746 13.3117 90.238 13.5958 90.7424 14.1654C91.2204 14.7189 91.4607 15.4336 91.4607 16.3072ZM90.1603 16.3494C90.1603 15.8096 90.0479 15.3468 89.8244 14.9608C89.5627 14.4943 89.1874 14.261 88.7021 14.261C88.1977 14.261 87.8153 14.4943 87.5535 14.9608C87.3288 15.3468 87.2177 15.8171 87.2177 16.373C87.2177 16.9128 87.33 17.3757 87.5535 17.7616C87.8248 18.2282 88.2025 18.4615 88.6902 18.4615C89.1683 18.4615 89.5424 18.2244 89.8125 17.7492C90.0455 17.3558 90.1603 16.8892 90.1603 16.3494Z" fill="black"/>
<path d="M97.5229 19.2805H96.3982L96.305 18.6067H96.2703C95.8854 19.144 95.3368 19.4132 94.6245 19.4132C94.0926 19.4132 93.6623 19.2358 93.3384 18.8834C93.0444 18.5632 92.8974 18.1649 92.8974 17.6921C92.8974 16.9773 93.1843 16.4326 93.7615 16.0553C94.3376 15.6781 95.148 15.4932 96.1914 15.5019V15.3927C96.1914 14.6221 95.8018 14.2374 95.0213 14.2374C94.4655 14.2374 93.9755 14.3826 93.5524 14.6705L93.2978 13.8167C93.8213 13.4804 94.4679 13.3117 95.2305 13.3117C96.703 13.3117 97.4416 14.1183 97.4416 15.7314V17.8857C97.4416 18.4702 97.4691 18.9355 97.5229 19.2805ZM96.2225 17.2702V16.368C94.8408 16.3432 94.15 16.7366 94.15 17.5469C94.15 17.8522 94.2289 18.0805 94.3902 18.2331C94.5516 18.3858 94.7572 18.4615 95.0022 18.4615C95.2771 18.4615 95.534 18.3709 95.7683 18.1909C96.0038 18.0098 96.1484 17.7802 96.2022 17.4985C96.2153 17.4352 96.2225 17.3583 96.2225 17.2702Z" fill="black"/>
<path d="M104.64 19.2804H103.529L103.47 18.341H103.435C103.08 19.0558 102.476 19.4131 101.626 19.4131C100.947 19.4131 100.382 19.1364 99.9335 18.583C99.4853 18.0295 99.2618 17.311 99.2618 16.4287C99.2618 15.4819 99.5044 14.715 99.9921 14.1293C100.464 13.5833 101.043 13.3103 101.731 13.3103C102.488 13.3103 103.017 13.5746 103.318 14.1045H103.342V10.7466H104.596V17.7044C104.596 18.274 104.61 18.7989 104.64 19.2804ZM103.342 16.8134V15.8381C103.342 15.6693 103.33 15.5328 103.308 15.4286C103.237 15.1159 103.085 14.8528 102.855 14.6406C102.622 14.4284 102.341 14.3217 102.017 14.3217C101.549 14.3217 101.184 14.514 100.915 14.8999C100.648 15.2859 100.513 15.7785 100.513 16.3803C100.513 16.9586 100.641 17.4277 100.898 17.7888C101.169 18.1735 101.535 18.3658 101.993 18.3658C102.404 18.3658 102.733 18.2057 102.982 17.8843C103.224 17.5878 103.342 17.2304 103.342 16.8134Z" fill="black"/>
<path d="M115.353 16.3072C115.353 17.2069 115.106 17.944 114.611 18.5223C114.093 19.1167 113.406 19.4132 112.547 19.4132C111.721 19.4132 111.063 19.1291 110.57 18.5583C110.08 17.9887 109.835 17.2702 109.835 16.404C109.835 15.4982 110.087 14.7548 110.594 14.1778C111.101 13.6008 111.782 13.3117 112.642 13.3117C113.467 13.3117 114.133 13.5958 114.635 14.1654C115.113 14.7189 115.353 15.4336 115.353 16.3072ZM114.055 16.3494C114.055 15.8096 113.943 15.3468 113.72 14.9608C113.455 14.4943 113.083 14.261 112.595 14.261C112.093 14.261 111.71 14.4943 111.446 14.9608C111.222 15.3468 111.11 15.8171 111.11 16.373C111.11 16.9128 111.223 17.3757 111.446 17.7616C111.718 18.2282 112.095 18.4615 112.583 18.4615C113.061 18.4615 113.438 18.2244 113.708 17.7492C113.938 17.3558 114.055 16.8892 114.055 16.3494Z" fill="black"/>
<path d="M122.088 19.2804H120.837V15.93C120.837 14.8975 120.459 14.3813 119.7 14.3813C119.328 14.3813 119.028 14.5228 118.797 14.8069C118.565 15.0911 118.449 15.4261 118.449 15.8096V19.2792H117.195V15.1023C117.195 14.5885 117.181 14.0314 117.151 13.4283H118.25L118.309 14.3428H118.344C118.491 14.0587 118.708 13.8241 118.993 13.6367C119.333 13.4183 119.712 13.3079 120.129 13.3079C120.654 13.3079 121.091 13.4841 121.439 13.8378C121.873 14.2709 122.088 14.9174 122.088 15.7761V19.2804Z" fill="black"/>
<path d="M130.518 14.4049H129.138V17.2466C129.138 17.9688 129.383 18.3299 129.869 18.3299C130.093 18.3299 130.28 18.3101 130.427 18.2691L130.459 19.2556C130.212 19.3524 129.887 19.4008 129.486 19.4008C128.991 19.4008 128.607 19.2445 128.328 18.9318C128.048 18.619 127.91 18.0929 127.91 17.3545V14.4049H127.086V13.4308H127.91V12.3586L129.137 11.9739V13.4295H130.516V14.4049H130.518Z" fill="black"/>
<path d="M137.149 19.2804H135.895V15.9547C135.895 14.9061 135.518 14.3812 134.761 14.3812C134.18 14.3812 133.783 14.6853 133.566 15.2933C133.529 15.4211 133.507 15.5775 133.507 15.7611V19.2791H132.256V10.7466H133.507V14.272H133.531C133.926 13.6305 134.491 13.3103 135.224 13.3103C135.742 13.3103 136.171 13.4865 136.512 13.8402C136.936 14.2807 137.149 14.9359 137.149 15.8021V19.2804Z" fill="black"/>
<path d="M143.99 16.0788C143.99 16.3121 143.973 16.5082 143.943 16.6682H140.187C140.203 17.2465 140.383 17.687 140.731 17.9923C141.048 18.2653 141.458 18.4018 141.96 18.4018C142.516 18.4018 143.023 18.31 143.48 18.1251L143.676 19.0285C143.141 19.2692 142.513 19.3896 141.785 19.3896C140.912 19.3896 140.225 19.1228 139.728 18.5892C139.228 18.0556 138.981 17.3396 138.981 16.4412C138.981 15.5589 139.211 14.8242 139.676 14.2385C140.162 13.6131 140.818 13.3004 141.646 13.3004C142.456 13.3004 143.072 13.6131 143.488 14.2385C143.824 14.7349 143.99 15.3491 143.99 16.0788ZM142.795 15.7425C142.804 15.3566 142.722 15.024 142.552 14.7436C142.335 14.3825 142.003 14.2013 141.555 14.2013C141.146 14.2013 140.813 14.3775 140.558 14.7312C140.35 15.0129 140.227 15.3491 140.187 15.7425H142.795Z" fill="black"/>
</g>
<defs>
<clipPath id="clip0_940_19795">
<rect width="169.736" height="52" fill="white"/>
</clipPath>
</defs>
</svg>
