<svg width="47" height="55" viewBox="0 0 47 55" fill="none" xmlns="http://www.w3.org/2000/svg">
<path fill-rule="evenodd" clip-rule="evenodd" d="M9.34996 7.77504C12.238 3.8308 16.9451 0.99416 23.4827 0.994141C29.9013 0.994121 34.5684 3.28875 37.4605 7.06891C40.3082 10.791 41.248 15.7085 40.7764 20.6596C40.7099 21.3579 40.6326 21.9894 40.5605 22.5616C40.5496 22.6479 40.5389 22.7324 40.5284 22.8154C40.4683 23.2905 40.4147 23.7137 40.3725 24.1214C40.2748 25.0653 40.2504 25.8224 40.3592 26.598C40.5745 28.1338 41.3541 30.0465 43.8485 33.6209C45.2894 35.6856 46.0904 37.4613 46.0919 39.1547C46.0934 40.9405 45.2095 42.2377 44.3011 43.2837L44.2086 43.3902L44.1002 43.4805C41.8704 45.3379 38.5765 46.5306 35.0255 47.2762C31.4291 48.0314 27.3632 48.3695 23.4094 48.3816C19.4538 48.3936 15.5562 48.0794 12.2878 47.5049C9.11416 46.9471 6.23738 46.0965 4.57423 44.8567C3.13224 43.7818 2.09799 42.6546 1.49989 41.4192C0.882808 40.1445 0.790957 38.8799 1.02924 37.6747C1.25789 36.5182 1.78389 35.4483 2.34237 34.4939C2.71395 33.859 3.15684 33.1849 3.57994 32.5409C3.77646 32.2418 3.96871 31.9492 4.14757 31.6701C5.42258 29.6799 6.022 28.5038 6.28067 27.1358C6.54815 25.7212 6.47939 23.9493 6.03811 20.7306C5.46551 16.5541 6.50681 11.6579 9.34996 7.77504ZM12.1811 9.82656C9.89668 12.9464 9.05204 16.9297 9.5086 20.2598C9.95294 23.5007 10.1041 25.764 9.72292 27.7799C9.33292 29.8424 8.41507 31.4921 7.10131 33.5428C6.87121 33.9019 6.65244 34.2345 6.44389 34.5516C6.05219 35.1472 5.69652 35.688 5.36944 36.2469C4.88251 37.079 4.5832 37.7544 4.46601 38.3472C4.35844 38.8912 4.40021 39.3797 4.6556 39.9072C4.92998 40.474 5.50707 41.198 6.67464 42.0684C7.62106 42.7739 9.76691 43.5235 12.8972 44.0737C15.9325 44.6072 19.62 44.9087 23.3987 44.8972C27.1794 44.8857 30.9972 44.561 34.302 43.867C37.577 43.1793 40.1588 42.1672 41.7439 40.8969C42.3955 40.1258 42.5897 39.655 42.5893 39.1576C42.5887 38.5449 42.2893 37.4967 40.9713 35.608C38.3859 31.9032 37.2212 29.4409 36.8901 27.0792C36.7257 25.9061 36.7776 24.8338 36.8883 23.7643C36.935 23.3141 36.9942 22.846 37.0541 22.3729C37.0645 22.2915 37.0748 22.2099 37.0851 22.1282C37.1562 21.5639 37.2281 20.9749 37.2894 20.3309C37.7047 15.9707 36.8382 12.0087 34.6734 9.17917C32.553 6.4077 29.0016 4.47852 23.4827 4.47853C18.0828 4.47855 14.4206 6.76803 12.1811 9.82656Z" fill="url(#paint0_linear_940_19423)"/>
<path fill-rule="evenodd" clip-rule="evenodd" d="M14.9949 48.5962C15.8294 48.1639 16.906 48.406 17.3995 49.137C18.0688 50.1284 20.09 51.4454 22.7538 51.8191C25.2809 52.1736 28.2679 51.6544 30.9312 49.1565C31.593 48.5358 32.7038 48.5026 33.4123 49.0823C34.1209 49.662 34.1588 50.6351 33.497 51.2557C29.9788 54.5554 25.7937 55.3602 22.1986 54.8559C18.7403 54.3707 15.6895 52.6457 14.3776 50.7026C13.884 49.9716 14.1604 49.0286 14.9949 48.5962Z" fill="white" fill-opacity="0.71"/>
<path fill-rule="evenodd" clip-rule="evenodd" d="M18.5454 8.14289C18.6127 7.17152 19.4363 6.43995 20.3849 6.50889C21.9999 6.62627 24.3024 7.3525 26.213 9.14499C28.1819 10.9922 29.6155 13.8624 29.5599 17.99C29.5467 18.9637 28.7652 19.7422 27.8143 19.7287C26.8634 19.7153 26.1032 18.915 26.1163 17.9413C26.1592 14.7582 25.0883 12.8727 23.8866 11.7452C22.6265 10.563 21.0922 10.0957 20.1411 10.0266C19.1925 9.95761 18.4781 9.11427 18.5454 8.14289Z" fill="url(#paint1_linear_940_19423)"/>
<defs>
<linearGradient id="paint0_linear_940_19423" x1="23.5" y1="8.74251" x2="23.4999" y2="74.2583" gradientUnits="userSpaceOnUse">
<stop stop-color="white"/>
<stop offset="1" stop-color="white" stop-opacity="0.53"/>
</linearGradient>
<linearGradient id="paint1_linear_940_19423" x1="24.0513" y1="8.26774" x2="27.9257" y2="31.9509" gradientUnits="userSpaceOnUse">
<stop stop-color="white"/>
<stop offset="1" stop-color="white" stop-opacity="0"/>
</linearGradient>
</defs>
</svg>
