<svg width="72" height="69" viewBox="0 0 72 69" fill="none" xmlns="http://www.w3.org/2000/svg">
<path d="M36 64.9782C33.9 64.9782 31.77 64.2187 30.18 62.7281L25.05 57.9751C23.76 56.7938 22.08 56.1469 20.28 56.1469H18C11.79 56.1469 6.75 51.4501 6.75 45.6845V15C6.75 9.23439 11.79 4.5376 18 4.5376H54C60.21 4.5376 65.25 9.23439 65.25 15V45.6845C65.25 51.4501 60.21 56.1469 54 56.1469H51.72C49.92 56.1469 48.21 56.7938 46.95 57.9751L41.82 62.7281C40.23 64.2187 38.1 64.9782 36 64.9782ZM18 8.7282C14.28 8.7282 11.25 11.5406 11.25 14.9719V45.6563C11.25 49.1157 14.28 51.9 18 51.9H20.28C23.28 51.9 26.1 52.9968 28.23 54.9655L33.36 59.7188C34.83 61.0688 37.2 61.0688 38.67 59.7188L43.8 54.9655C45.93 52.9968 48.75 51.9 51.75 51.9H54C57.72 51.9 60.75 49.0876 60.75 45.6563V14.9719C60.75 11.5125 57.72 8.7282 54 8.7282H18Z" fill="#705BFF"/>
<path d="M31.1407 41.8034H23.1007C21.7807 41.8034 20.5507 41.2125 19.7707 40.2C19.0207 39.2438 18.8407 38.0628 19.2007 36.9378C20.2507 33.9284 22.8307 32.297 25.1107 30.8345C27.5107 29.3158 28.8607 28.3597 28.8607 26.7284C28.8607 25.2659 27.6007 24.0845 26.0407 24.0845C24.4807 24.0845 23.2207 25.2659 23.2207 26.7284C23.2207 27.8815 22.2007 28.8378 20.9707 28.8378C19.7407 28.8378 18.7207 27.8815 18.7207 26.7284C18.7207 22.9597 21.9907 19.8657 26.0407 19.8657C30.0907 19.8657 33.3607 22.9315 33.3607 26.7284C33.3607 30.694 30.1807 32.7189 27.6307 34.3502C26.0407 35.3627 24.5407 36.319 23.7907 37.5846H31.1107C32.3407 37.5846 33.3607 38.5409 33.3607 39.694C33.3607 40.8471 32.3707 41.8034 31.1407 41.8034Z" fill="#705BFF"/>
<path d="M48.1196 41.8035C46.8896 41.8035 45.8696 40.8473 45.8696 39.6942V37.7534H39.9896C39.9896 37.7534 39.9897 37.7534 39.9597 37.7534C38.4897 37.7534 37.1396 37.0223 36.3896 35.8411C35.6396 34.6317 35.6396 33.141 36.3896 31.9598C38.4296 28.6692 40.7997 24.9285 42.9597 21.666C43.9197 20.2316 45.7497 19.5848 47.4597 20.0348C49.1697 20.5129 50.3696 21.9756 50.3396 23.6631V33.5628H50.9996C52.2296 33.5628 53.2496 34.519 53.2496 35.6721C53.2496 36.8253 52.2296 37.7815 50.9996 37.7815H50.3696V39.7223C50.3696 40.8754 49.3796 41.8035 48.1196 41.8035ZM45.8696 25.2942C44.0996 27.9942 42.2696 30.8909 40.6196 33.5346H45.8696V25.2942Z" fill="#705BFF"/>
</svg>
