<svg width="64" height="66" viewBox="0 0 64 66" fill="none" xmlns="http://www.w3.org/2000/svg">
<path d="M35.7337 48.1733L29.0404 48.1733C24.6671 48.1733 21.1204 44.4358 21.1204 39.8316C21.1204 38.7212 22.0271 37.8004 23.1204 37.8004C24.2138 37.8004 25.1204 38.7212 25.1204 39.8316C25.1204 42.1879 26.8804 44.1108 29.0404 44.1108L35.7337 44.1108C37.4671 44.1108 38.9071 42.5399 38.9071 40.6441C38.9071 38.2879 38.0804 37.8274 36.7204 37.3399L25.9738 33.4941C23.8937 32.7629 21.0937 31.192 21.0937 26.3441C21.0937 22.1733 24.3204 18.8149 28.2671 18.8149L34.9604 18.8149C39.3337 18.8149 42.8804 22.5524 42.8804 27.1566C42.8804 28.267 41.9738 29.1879 40.8804 29.1879C39.7871 29.1879 38.8804 28.267 38.8804 27.1566C38.8804 24.8004 37.1204 22.8774 34.9604 22.8774L28.2671 22.8774C26.5338 22.8774 25.0937 24.4483 25.0937 26.3441C25.0937 28.7004 25.9204 29.1608 27.2804 29.6483L38.0271 33.4941C40.1071 34.2254 42.9071 35.7962 42.9071 40.6441C42.8804 44.7879 39.6804 48.1733 35.7337 48.1733Z" fill="#705BFF"/>
<path d="M32 51.7754C30.9067 51.7754 30 50.8546 30 49.7441L30 17.2441C30 16.1337 30.9067 15.2129 32 15.2129C33.0933 15.2129 34 16.1337 34 17.2441L34 49.7441C34 50.8546 33.0933 51.7754 32 51.7754Z" fill="#705BFF"/>
<path d="M31.9997 62.6086C16.1863 62.6086 3.33301 49.5544 3.33301 33.494C3.33301 17.4336 16.1863 4.37939 31.9997 4.37939C47.813 4.37939 60.6663 17.4336 60.6663 33.494C60.6663 49.5544 47.813 62.6086 31.9997 62.6086ZM31.9997 8.44189C18.3997 8.44189 7.33301 19.6815 7.33301 33.494C7.33301 47.3065 18.3997 58.5461 31.9997 58.5461C45.5997 58.5461 56.6663 47.3065 56.6663 33.494C56.6663 19.6815 45.5997 8.44189 31.9997 8.44189Z" fill="#705BFF"/>
</svg>
