<svg width="56" height="57" viewBox="0 0 56 57" fill="none" xmlns="http://www.w3.org/2000/svg">
<path d="M42 26.0776C41.0433 26.0776 40.25 25.2842 40.25 24.3276V19.6609C40.25 12.3109 38.1733 7.41089 28 7.41089C17.8267 7.41089 15.75 12.3109 15.75 19.6609V24.3276C15.75 25.2842 14.9567 26.0776 14 26.0776C13.0433 26.0776 12.25 25.2842 12.25 24.3276V19.6609C12.25 12.8942 13.8833 3.91089 28 3.91089C42.1167 3.91089 43.75 12.8942 43.75 19.6609V24.3276C43.75 25.2842 42.9567 26.0776 42 26.0776Z" fill="url(#paint0_linear_940_19432)"/>
<path d="M28.0003 45.9108C23.8237 45.9108 20.417 42.5041 20.417 38.3275C20.417 34.1508 23.8237 30.7441 28.0003 30.7441C32.177 30.7441 35.5837 34.1508 35.5837 38.3275C35.5837 42.5041 32.177 45.9108 28.0003 45.9108ZM28.0003 34.2441C25.7603 34.2441 23.917 36.0875 23.917 38.3275C23.917 40.5675 25.7603 42.4108 28.0003 42.4108C30.2403 42.4108 32.0837 40.5675 32.0837 38.3275C32.0837 36.0875 30.2403 34.2441 28.0003 34.2441Z" fill="url(#paint1_linear_940_19432)"/>
<path d="M39.667 54.0774H16.3337C6.04366 54.0774 2.91699 50.9507 2.91699 40.6607V35.9941C2.91699 25.7041 6.04366 22.5774 16.3337 22.5774H39.667C49.957 22.5774 53.0837 25.7041 53.0837 35.9941V40.6607C53.0837 50.9507 49.957 54.0774 39.667 54.0774ZM16.3337 26.0774C7.98033 26.0774 6.41699 27.6641 6.41699 35.9941V40.6607C6.41699 48.9907 7.98033 50.5774 16.3337 50.5774H39.667C48.0203 50.5774 49.5837 48.9907 49.5837 40.6607V35.9941C49.5837 27.6641 48.0203 26.0774 39.667 26.0774H16.3337Z" fill="url(#paint2_linear_940_19432)"/>
<defs>
<linearGradient id="paint0_linear_940_19432" x1="28" y1="3.91089" x2="28" y2="26.0776" gradientUnits="userSpaceOnUse">
<stop offset="0.375" stop-color="white"/>
<stop offset="0.859375" stop-color="white" stop-opacity="0.49"/>
</linearGradient>
<linearGradient id="paint1_linear_940_19432" x1="28.0003" y1="30.7441" x2="28.0003" y2="45.9108" gradientUnits="userSpaceOnUse">
<stop offset="0.375" stop-color="white"/>
<stop offset="0.859375" stop-color="white" stop-opacity="0.49"/>
</linearGradient>
<linearGradient id="paint2_linear_940_19432" x1="28.0003" y1="22.5774" x2="28.0003" y2="54.0774" gradientUnits="userSpaceOnUse">
<stop offset="0.375" stop-color="white"/>
<stop offset="0.859375" stop-color="white" stop-opacity="0.49"/>
</linearGradient>
</defs>
</svg>
