<svg width="45" height="76" viewBox="0 0 45 76" fill="none" xmlns="http://www.w3.org/2000/svg">
<path d="M8.7872 74.4936V69.0239C6.6422 65.1629 2.28786 56.7331 2.03046 53.9017C1.77306 51.0703 3.21021 48.2174 3.96096 47.1449C5.67696 43.1767 9.94551 34.0819 13.2917 29.4487" stroke="#FFDE81" stroke-width="3" stroke-linecap="round"/>
<path d="M22.5921 68.7096C23.2356 65.2776 24.587 57.0623 24.8444 51.6569C25.1661 44.9001 25.8096 38.7869 21.6269 38.4652C17.4442 38.1434 17.4442 48.7611 15.5137 51.6569" stroke="#FFDE81" stroke-width="3" stroke-linecap="round"/>
<path d="M34.3131 2.42188C34.3131 2.42188 32.3826 11.1091 43.0003 11.4309" stroke="#FFDE81" stroke-width="3" stroke-linecap="round"/>
<path d="M14.2256 11.1996C14.2256 11.1996 22.9128 13.1301 23.2346 2.5124" stroke="#FFDE81" stroke-width="3" stroke-linecap="round"/>
<path d="M42.54 42.4571C42.54 42.4571 33.8528 40.5266 33.5311 51.1443" stroke="#FFDE81" stroke-width="3" stroke-linecap="round"/>
<path d="M25.524 32.0211C24.8611 32.0211 24.2365 31.8521 23.6501 31.5141C23.0765 31.1886 22.5984 30.7003 22.216 30.0493C21.8464 29.4108 21.6296 28.6534 21.5659 27.777L20.0171 27.777L20.0171 26.5752L21.585 26.5752C21.6998 25.3232 22.0822 24.3154 22.7323 23.5517C23.3952 22.7881 24.2875 22.3937 25.4092 22.3687L25.4092 25.1855C24.4914 25.2606 23.9369 25.7239 23.7457 26.5752L27.3978 26.5752C27.6273 25.6738 27.8567 24.9477 28.0862 24.3968C28.3157 23.8459 28.6853 23.3702 29.1952 22.9696C29.7051 22.569 30.3998 22.3687 31.2794 22.3687C32.3884 22.3687 33.2935 22.7568 33.9946 23.533C34.6957 24.3217 35.0973 25.3358 35.1992 26.5752L36.748 26.5752L36.748 27.777L35.1992 27.777C35.0973 28.9789 34.7276 29.9366 34.0902 30.6503C33.4528 31.3764 32.5733 31.7833 31.4515 31.8709L31.4515 29.0352C31.8212 28.9977 32.1399 28.8662 32.4076 28.6409C32.688 28.4281 32.8856 28.1401 33.0003 27.777L29.3864 27.777C29.1442 28.716 28.9084 29.4547 28.679 29.993C28.4622 30.5438 28.0989 31.0196 27.589 31.4202C27.0919 31.8208 26.4035 32.0211 25.524 32.0211ZM31.4133 25.1104C30.9926 25.1104 30.6484 25.2356 30.3807 25.486C30.1258 25.7364 29.9154 26.0994 29.7497 26.5752L33.0577 26.5752C32.9939 26.1245 32.8219 25.7677 32.5414 25.5048C32.261 25.2419 31.8849 25.1104 31.4133 25.1104ZM23.7075 27.777C23.7967 28.2528 23.9943 28.6221 24.3002 28.885C24.6062 29.1604 24.9758 29.2982 25.4092 29.2982C25.8299 29.2982 26.1677 29.1667 26.4227 28.9038C26.6776 28.6409 26.8879 28.2653 27.0537 27.777L23.7075 27.777Z" fill="#FFDE81"/>
<path d="M15.1908 51.6495V51.6495C14.3023 51.6495 13.582 50.9292 13.582 50.0407V10.4219C13.582 6.00361 17.1638 2.42188 21.582 2.42188H34.8612C39.2795 2.42188 42.8612 6.0036 42.8612 10.4219V43.6495C42.8612 48.0677 39.2795 51.6495 34.8612 51.6495H25.165" stroke="#FFDE81" stroke-width="3" stroke-linecap="round"/>
</svg>
