<svg width="73" height="62" viewBox="0 0 73 62" fill="none" xmlns="http://www.w3.org/2000/svg">
<rect x="1" y="1.99414" width="59" height="37" rx="7" stroke="#FFDE81" stroke-width="2"/>
<rect x="9" y="9.23145" width="10" height="11" rx="3" stroke="#FFDE81" stroke-width="2"/>
<rect x="11" y="27.2314" width="4" height="2" rx="1" fill="#FFDE81" stroke="#FFDE81" stroke-width="2"/>
<rect x="47" y="27.2314" width="4" height="2" rx="1" fill="#FFDE81" stroke="#FFDE81" stroke-width="2"/>
<rect x="23" y="27.2314" width="4" height="2" rx="1" fill="#FFDE81" stroke="#FFDE81" stroke-width="2"/>
<rect x="35" y="27.2314" width="4" height="2" rx="1" fill="#FFDE81" stroke="#FFDE81" stroke-width="2"/>
<rect x="36.75" y="8.98145" width="1.5" height="2.5" rx="0.75" fill="#FFDE81" stroke="#FFDE81" stroke-width="1.5"/>
<rect x="41.75" y="8.98145" width="1.5" height="2.5" rx="0.75" fill="#FFDE81" stroke="#FFDE81" stroke-width="1.5"/>
<rect x="46.75" y="8.98145" width="1.5" height="2.5" rx="0.75" fill="#FFDE81" stroke="#FFDE81" stroke-width="1.5"/>
<rect x="51.75" y="8.98145" width="1.5" height="2.5" rx="0.75" fill="#FFDE81" stroke="#FFDE81" stroke-width="1.5"/>
<path d="M15 47.0806L17.8039 53.9658C19.4486 58.0045 24.0222 59.9819 28.0743 58.3704C40.1171 53.5811 55.6655 47.1628 64.6549 43.4319C68.7091 41.7493 70.3292 37.2516 68.2338 33.3946C67.0795 31.2698 66.1058 29.4893 66.1058 29.4893" stroke="#FFDE81" stroke-width="2" stroke-linecap="round"/>
</svg>
