<svg width="49" height="58" viewBox="0 0 49 58" fill="none" xmlns="http://www.w3.org/2000/svg">
<path d="M24.3981 57.1163C21.5538 57.1163 18.7356 56.2813 16.5176 54.6373L5.29713 46.2611C2.32238 44.0431 0 39.3983 0 35.719V16.3049C0 12.2864 2.94865 8.00696 6.73231 6.59787L19.7533 1.71826C22.3367 0.752769 26.4074 0.752769 28.9907 1.71826L42.0117 6.59787C45.7954 8.00696 48.744 12.2864 48.744 16.3049V35.6929C48.744 39.3983 46.4216 44.017 43.4469 46.235L32.2264 54.6112C30.0605 56.2813 27.2424 57.1163 24.3981 57.1163ZM21.1363 5.39754L8.1153 10.2772C5.89729 11.1122 3.94023 13.9303 3.94023 16.331V35.719C3.94023 38.198 5.68854 41.6685 7.64561 43.1298L18.8661 51.506C21.867 53.7501 26.9292 53.7501 29.9562 51.506L41.1767 43.1298C43.1598 41.6424 44.8821 38.198 44.8821 35.719V16.3049C44.8821 13.9303 42.925 11.1122 40.707 10.2511L27.686 5.37145C25.9116 4.74518 22.8846 4.74518 21.1363 5.39754Z" fill="url(#paint0_linear_940_19438)"/>
<path d="M20.9017 34.8583C20.4059 34.8583 19.9101 34.6757 19.5187 34.2843L15.3175 30.0831C14.5608 29.3264 14.5608 28.0739 15.3175 27.3171C16.0743 26.5604 17.3268 26.5604 18.0835 27.3171L20.9017 30.1353L30.7392 20.2978C31.496 19.541 32.7485 19.541 33.5052 20.2978C34.262 21.0545 34.262 22.307 33.5052 23.0638L22.2847 34.2843C21.8933 34.6757 21.3975 34.8583 20.9017 34.8583Z" fill="url(#paint1_linear_940_19438)"/>
<defs>
<linearGradient id="paint0_linear_940_19438" x1="24.372" y1="0.994141" x2="24.372" y2="57.1163" gradientUnits="userSpaceOnUse">
<stop offset="0.0833333" stop-color="white"/>
<stop offset="1" stop-color="white" stop-opacity="0.6"/>
</linearGradient>
<linearGradient id="paint1_linear_940_19438" x1="24.4114" y1="19.7302" x2="24.4114" y2="34.8583" gradientUnits="userSpaceOnUse">
<stop offset="0.0833333" stop-color="white"/>
<stop offset="1" stop-color="white" stop-opacity="0.6"/>
</linearGradient>
</defs>
</svg>
