<svg width="63" height="64" viewBox="0 0 63 64" fill="none" xmlns="http://www.w3.org/2000/svg">
<path d="M34.2562 43.6503H29.3213C25.83 43.6503 22.9688 40.7103 22.9688 37.0878C22.9688 36.0115 23.8612 35.119 24.9375 35.119C26.0138 35.119 26.9062 36.0115 26.9062 37.0878C26.9062 38.5315 27.9825 39.7128 29.3213 39.7128H34.2562C35.28 39.7128 36.0938 38.794 36.0938 37.6653C36.0938 36.2478 35.7 36.0377 34.8075 35.7227L26.9062 32.9665C25.2262 32.3627 22.9688 31.1553 22.9688 27.2965C22.9688 24.0153 25.5675 21.3115 28.7438 21.3115H33.6787C37.17 21.3115 40.0312 24.2515 40.0312 27.874C40.0312 28.9503 39.1388 29.8428 38.0625 29.8428C36.9862 29.8428 36.0938 28.9503 36.0938 27.874C36.0938 26.4303 35.0175 25.249 33.6787 25.249H28.7438C27.72 25.249 26.9062 26.1678 26.9062 27.2965C26.9062 28.714 27.3 28.924 28.1925 29.239L36.0938 31.9953C37.7738 32.599 40.0312 33.8065 40.0312 37.6653C40.0312 40.9728 37.4325 43.6503 34.2562 43.6503Z" fill="#00CEC2"/>
<path d="M31.5 46.2754C30.4237 46.2754 29.5312 45.3829 29.5312 44.3066V20.6816C29.5312 19.6054 30.4237 18.7129 31.5 18.7129C32.5763 18.7129 33.4688 19.6054 33.4688 20.6816V44.3066C33.4688 45.3829 32.5763 46.2754 31.5 46.2754Z" fill="#00CEC2"/>
<path d="M31.5 60.7129C15.9338 60.7129 3.28125 48.0604 3.28125 32.4941C3.28125 16.9279 15.9338 4.27539 31.5 4.27539C32.5763 4.27539 33.4688 5.16789 33.4688 6.24414C33.4688 7.32039 32.5763 8.21289 31.5 8.21289C18.1125 8.21289 7.21875 19.1066 7.21875 32.4941C7.21875 45.8816 18.1125 56.7754 31.5 56.7754C44.8875 56.7754 55.7812 45.8816 55.7812 32.4941C55.7812 31.4179 56.6738 30.5254 57.75 30.5254C58.8262 30.5254 59.7188 31.4179 59.7188 32.4941C59.7188 48.0604 47.0662 60.7129 31.5 60.7129Z" fill="#00CEC2"/>
<path d="M57.75 18.7129C56.6737 18.7129 55.7812 17.8204 55.7812 16.7441V8.21289H47.25C46.1737 8.21289 45.2812 7.32039 45.2812 6.24414C45.2812 5.16789 46.1737 4.27539 47.25 4.27539H57.75C58.8263 4.27539 59.7188 5.16789 59.7188 6.24414V16.7441C59.7188 17.8204 58.8263 18.7129 57.75 18.7129Z" fill="#00CEC2"/>
<path d="M44.6253 21.3377C44.1265 21.3377 43.6278 21.1539 43.234 20.7602C42.4728 19.9989 42.4728 18.7389 43.234 17.9777L56.359 4.85268C57.1203 4.09143 58.3803 4.09143 59.1415 4.85268C59.9028 5.61393 59.9028 6.87392 59.1415 7.63517L46.0165 20.7602C45.6228 21.1539 45.124 21.3377 44.6253 21.3377Z" fill="#00CEC2"/>
</svg>
