<svg width="67" height="59" viewBox="0 0 67 59" fill="none" xmlns="http://www.w3.org/2000/svg">
<path d="M15 3.99414H8V9.99414" stroke="#FFDE81" stroke-width="3" stroke-linecap="round" stroke-linejoin="round"/>
<path d="M58 38.9941L65 38.9941L65 32.9941" stroke="#FFDE81" stroke-width="3" stroke-linecap="round" stroke-linejoin="round"/>
<path d="M65 9.99414L65 3.99414L58 3.99414" stroke="#FFDE81" stroke-width="3" stroke-linecap="round" stroke-linejoin="round"/>
<path d="M8 33.9941L8 38.9941L15 38.9941" stroke="#FFDE81" stroke-width="3" stroke-linecap="round" stroke-linejoin="round"/>
<path d="M17.8136 55.8845C20.9064 49.3262 27.5009 41.4455 37.9882 42.611C48.5966 43.7901 53.278 50.9357 54.887 56.1925C54.9879 56.5222 54.9128 56.8093 54.7145 57.045C54.502 57.2975 54.1352 57.4941 53.681 57.4941H19.0294C18.5161 57.4941 18.1156 57.251 17.8958 56.9383C17.687 56.6411 17.6294 56.275 17.8136 55.8845Z" stroke="#FFDE81" stroke-width="3" stroke-linecap="round" stroke-linejoin="round"/>
<circle cx="36.5" cy="24.4941" r="12" stroke="#FFDE81" stroke-width="3" stroke-linejoin="round"/>
</svg>
