<svg width="1440" height="1492" viewBox="0 0 1440 1492" fill="none" xmlns="http://www.w3.org/2000/svg">
<path opacity="0.13" d="M1439.8 367.653C1027.3 479.702 377.295 407.178 -0.600542 261.057C-0.600542 261.057 -0.600456 474.653 -0.600432 506.153C-0.600436 1058.15 -0.600541 1166.91 -0.600541 1166.91C184.843 1210.7 362.49 1231.74 520.697 1251.5C765.76 1282.12 1157.7 1295.99 1439.8 1216.15L1439.8 367.653Z" fill="url(#paint0_linear_1309_20367)"/>
<path opacity="0.08" d="M1439.4 734.653C1439.4 660.653 1439.4 434.717 1439.4 434.717C1008 511.258 365.816 394.209 -0.600461 222.653C-0.600461 222.653 -0.600798 301.85 -0.600925 366.653C-0.600497 845.153 -0.60077 1161.51 -0.60077 1161.51C169.375 1210.18 332.981 1240.35 479.961 1268.36C733.353 1316.65 1144.55 1345.43 1439.4 1274.65C1439.4 1274.65 1439.4 902.153 1439.4 734.653Z" fill="url(#paint1_linear_1309_20367)"/>
<defs>
<linearGradient id="paint0_linear_1309_20367" x1="731.267" y1="1016.06" x2="1146.57" y2="156.36" gradientUnits="userSpaceOnUse">
<stop offset="0.00265133" stop-color="white"/>
<stop offset="1" stop-color="white" stop-opacity="0"/>
</linearGradient>
<linearGradient id="paint1_linear_1309_20367" x1="710.407" y1="1009.6" x2="1190.79" y2="158.865" gradientUnits="userSpaceOnUse">
<stop offset="0.00265133" stop-color="white"/>
<stop offset="1" stop-color="white" stop-opacity="0"/>
</linearGradient>
</defs>
</svg>
