<svg width="1440" height="1564" viewBox="0 0 1440 1564" fill="none" xmlns="http://www.w3.org/2000/svg">
<path opacity="0.08" d="M1740.02 395.947C1742.82 386.752 1732.76 379.586 1724.58 384.848C1357.59 621.102 448.654 487.981 -9.75041 269.188C-15.0177 266.674 -21.5022 269.639 -23.7493 275.394C-123.321 530.409 -192.938 719.478 -447.564 921.466C-453.387 926.085 -453.194 934.949 -447.072 938.223C-124.354 1110.82 206.918 1170.45 480.56 1222.59C756.073 1275.1 1218.15 1304.55 1514.37 1208.02C1517.95 1206.86 1520.68 1203.76 1521.54 1200.11C1604.03 850.43 1656.11 670.574 1740.02 395.947Z" fill="url(#paint0_linear_940_19254)"/>
<path opacity="0.13" d="M1697.75 353.581C1699.95 344.223 1689.43 337.71 1681.6 343.473C1338.13 596.304 444.315 523.346 -16.2428 338.793C-21.6605 336.622 -27.9429 339.993 -29.8172 345.881C-110.908 600.581 -167.01 789.22 -402.403 1001.96C-407.917 1006.94 -407.156 1015.77 -400.836 1018.65C-75.4207 1166.67 251.256 1204.11 521.298 1237.85C793.229 1271.82 1246.01 1285.18 1528.88 1172.75C1532.38 1171.36 1534.9 1168.11 1535.53 1164.4C1594.06 818.422 1633.21 627.107 1697.75 353.581Z" fill="url(#paint1_linear_940_19254)"/>
<defs>
<linearGradient id="paint0_linear_940_19254" x1="711.004" y1="995.939" x2="1191.39" y2="145.207" gradientUnits="userSpaceOnUse">
<stop offset="0.00265133" stop-color="white"/>
<stop offset="1" stop-color="white" stop-opacity="0"/>
</linearGradient>
<linearGradient id="paint1_linear_940_19254" x1="731.866" y1="1002.4" x2="1147.17" y2="142.701" gradientUnits="userSpaceOnUse">
<stop offset="0.00265133" stop-color="white"/>
<stop offset="1" stop-color="white" stop-opacity="0"/>
</linearGradient>
</defs>
</svg>
