<svg width="1648" height="1480" viewBox="0 0 1648 1480" fill="none" xmlns="http://www.w3.org/2000/svg">
<path opacity="0.08" d="M1542.41 299.12C1542.4 292.828 1536.71 288.528 1530.5 290.177C1140.8 393.726 560.97 343.127 118.05 203.268C111.465 201.189 104.388 206.561 104.388 213.604L104.388 1164.41C104.388 1168.59 107.012 1172.14 110.971 1173.24C188.097 1194.69 258.607 1197.72 416.984 1234.27C710.768 1302.07 1192.88 1353.93 1535.9 1280.37C1540.81 1279.32 1544.38 1274.85 1544.37 1269.91L1542.41 299.12Z" fill="url(#paint0_linear_1115_18914)"/>
<path opacity="0.14" d="M1544.89 245.144C1544.89 238.857 1539.21 234.545 1533.01 236.18C1137.45 340.482 557.355 308.272 117.902 177.987C111.338 176.041 104.393 181.403 104.396 188.377L104.885 1140.9C104.888 1145.09 107.514 1148.63 111.474 1149.73C188.444 1171.08 258.984 1174.17 417.086 1210.66C710.989 1278.48 1193.38 1330.35 1536.42 1256.67C1541.33 1255.61 1544.89 1251.16 1544.89 1246.22L1544.89 245.144Z" fill="url(#paint1_linear_1115_18914)"/>
<defs>
<linearGradient id="paint0_linear_1115_18914" x1="691.682" y1="984.146" x2="1281.05" y2="28.3109" gradientUnits="userSpaceOnUse">
<stop offset="0.00265133" stop-color="white"/>
<stop offset="1" stop-color="white" stop-opacity="0"/>
</linearGradient>
<linearGradient id="paint1_linear_1115_18914" x1="691.784" y1="960.529" x2="1281.15" y2="4.69365" gradientUnits="userSpaceOnUse">
<stop offset="0.00265133" stop-color="white"/>
<stop offset="1" stop-color="white" stop-opacity="0"/>
</linearGradient>
</defs>
</svg>
