<svg width="24" height="25" viewBox="0 0 24 25" fill="none" xmlns="http://www.w3.org/2000/svg">
<path d="M12 2.99414C17.52 2.99414 22 7.47414 22 12.9941C22 18.5141 17.52 22.9941 12 22.9941C6.48 22.9941 2 18.5141 2 12.9941C2 7.47414 6.48 2.99414 12 2.99414ZM12 4.99414C7.58 4.99414 4 8.57414 4 12.9941C4 17.4141 7.58 20.9941 12 20.9941C16.42 20.9941 20 17.4141 20 12.9941C20 8.57414 16.42 4.99414 12 4.99414ZM12 7.99414C13.82 7.99414 15.413 8.96714 16.288 10.4221L14.574 11.4511C14.3043 11.0014 13.9213 10.6302 13.4634 10.3746C13.0055 10.119 12.4885 9.98788 11.9641 9.99437C11.4397 10.0009 10.9262 10.1447 10.4747 10.4116C10.0232 10.6784 9.6496 11.059 9.39107 11.5153C9.13254 11.9716 8.99815 12.4876 9.00128 13.0121C9.00442 13.5365 9.14498 14.051 9.40895 14.5041C9.67292 14.9573 10.0511 15.3334 10.5057 15.5948C10.9603 15.8562 11.4756 15.9939 12 15.9941C12.5181 15.9945 13.0275 15.8605 13.4785 15.6054C13.9294 15.3502 14.3065 14.9825 14.573 14.5381L16.288 15.5661C15.726 16.5048 14.8716 17.2331 13.8559 17.6395C12.8402 18.0459 11.7192 18.1078 10.6649 17.8159C9.61058 17.5239 8.68114 16.8942 8.01914 16.0232C7.35713 15.1522 6.99912 14.0881 7 12.9941C7 10.2341 9.24 7.99414 12 7.99414Z" fill="white"/>
</svg>
