<svg width="1440" height="1199" viewBox="0 0 1440 1199" fill="none" xmlns="http://www.w3.org/2000/svg">
<g clip-path="url(#clip0_1115_18879)">
<rect width="1440" height="1199" fill="#0F1A2A"/>
<path opacity="0.08" d="M1438.41 131.266C1438.4 124.975 1432.71 120.674 1426.5 122.323C1036.8 225.873 456.97 175.273 14.0496 35.4147C7.46481 33.3355 0.388343 38.7074 0.388344 45.7502L0.388367 996.552C0.388367 1000.73 3.01183 1004.28 6.97059 1005.39C84.0974 1026.83 154.607 1029.87 312.984 1066.42C606.768 1134.22 1088.88 1186.07 1431.9 1112.52C1436.81 1111.46 1440.38 1107 1440.37 1102.05L1438.41 131.266Z" fill="url(#paint0_linear_1115_18879)"/>
<path opacity="0.14" d="M1440.89 77.2905C1440.89 71.003 1435.21 66.6913 1429.01 68.3266C1033.45 172.629 453.355 140.419 13.902 10.1331C7.33846 8.18727 0.392858 13.5491 0.39644 20.5237L0.88544 973.049C0.887588 977.232 3.51356 980.781 7.47381 981.88C84.4443 1003.22 154.984 1006.32 313.086 1042.8C606.989 1110.63 1089.38 1162.5 1432.42 1088.81C1437.33 1087.76 1440.89 1083.3 1440.89 1078.37L1440.89 77.2905Z" fill="url(#paint1_linear_1115_18879)"/>
</g>
<defs>
<linearGradient id="paint0_linear_1115_18879" x1="587.682" y1="816.293" x2="1177.05" y2="-139.543" gradientUnits="userSpaceOnUse">
<stop offset="0.00265133" stop-color="white"/>
<stop offset="1" stop-color="white" stop-opacity="0"/>
</linearGradient>
<linearGradient id="paint1_linear_1115_18879" x1="587.784" y1="792.676" x2="1177.15" y2="-163.16" gradientUnits="userSpaceOnUse">
<stop offset="0.00265133" stop-color="white"/>
<stop offset="1" stop-color="white" stop-opacity="0"/>
</linearGradient>
<clipPath id="clip0_1115_18879">
<rect width="1440" height="1199" fill="white"/>
</clipPath>
</defs>
</svg>
