<svg width="43" height="43" viewBox="0 0 43 43" fill="none" xmlns="http://www.w3.org/2000/svg">
<path d="M34.2057 21.5566H28.2207C27.5032 21.5566 26.9082 20.9616 26.9082 20.2441V8.01164C26.9082 6.71664 27.4157 5.50914 28.3257 4.59914C29.2357 3.68914 30.4432 3.18164 31.7382 3.18164H31.7557C33.9432 3.19914 36.0082 4.05664 37.5832 5.61414C39.1582 7.20664 40.0157 9.30664 40.0157 11.4941V15.7291C40.0332 19.2116 37.6882 21.5566 34.2057 21.5566ZM29.5332 18.9316H34.2057C36.2357 18.9316 37.4082 17.7591 37.4082 15.7291V11.4941C37.4082 9.98914 36.8132 8.55414 35.7457 7.46914C34.6782 6.41914 33.2432 5.82414 31.7557 5.80664C31.7557 5.80664 31.7557 5.80664 31.7382 5.80664C31.1607 5.80664 30.6007 6.03414 30.1807 6.45414C29.7607 6.87414 29.5332 7.41664 29.5332 8.01164V18.9316Z" fill="#FFDE81"/>
<path d="M15.9707 41.8216C15.1482 41.8216 14.3782 41.5066 13.8007 40.9116L10.8957 37.9891C10.7382 37.8316 10.4932 37.8141 10.3182 37.9541L7.3082 40.1941C6.3807 40.8941 5.1557 41.0166 4.1057 40.4916C3.0557 39.9666 2.4082 38.9166 2.4082 37.7441V11.4941C2.4082 6.20914 5.4357 3.18164 10.7207 3.18164H31.7207C32.4382 3.18164 33.0332 3.77664 33.0332 4.49414C33.0332 5.21164 32.4382 5.80664 31.7207 5.80664C30.5132 5.80664 29.5332 6.78664 29.5332 7.99414V37.7441C29.5332 38.9166 28.8857 39.9666 27.8357 40.4916C26.7857 41.0166 25.5607 40.9116 24.6332 40.2116L21.6407 37.9716C21.4657 37.8316 21.2207 37.8666 21.0807 38.0066L18.1407 40.9466C17.5632 41.5066 16.7932 41.8216 15.9707 41.8216ZM10.5632 35.2416C11.3682 35.2416 12.1557 35.5391 12.7507 36.1516L15.6557 39.0741C15.7607 39.1791 15.9007 39.1966 15.9707 39.1966C16.0407 39.1966 16.1807 39.1791 16.2857 39.0741L19.2257 36.1341C20.3107 35.0491 22.0257 34.9441 23.2332 35.8716L26.2082 38.0941C26.4007 38.2341 26.5757 38.1816 26.6632 38.1291C26.7507 38.0766 26.9082 37.9716 26.9082 37.7441V7.99414C26.9082 7.20664 27.1007 6.45414 27.4332 5.80664H10.7207C6.8357 5.80664 5.0332 7.60914 5.0332 11.4941V37.7441C5.0332 37.9891 5.1907 38.0941 5.2782 38.1466C5.3832 38.1991 5.5582 38.2341 5.7332 38.0941L8.7257 35.8541C9.2682 35.4516 9.9157 35.2416 10.5632 35.2416Z" fill="#FFDE81"/>
<path d="M21.2207 25.0742H15.9707C15.2532 25.0742 14.6582 24.4792 14.6582 23.7617C14.6582 23.0442 15.2532 22.4492 15.9707 22.4492H21.2207C21.9382 22.4492 22.5332 23.0442 22.5332 23.7617C22.5332 24.4792 21.9382 25.0742 21.2207 25.0742Z" fill="#FFDE81"/>
<path d="M21.2207 18.0742H15.9707C15.2532 18.0742 14.6582 17.4792 14.6582 16.7617C14.6582 16.0442 15.2532 15.4492 15.9707 15.4492H21.2207C21.9382 15.4492 22.5332 16.0442 22.5332 16.7617C22.5332 17.4792 21.9382 18.0742 21.2207 18.0742Z" fill="#FFDE81"/>
<path d="M10.668 18.5117C9.70547 18.5117 8.91797 17.7242 8.91797 16.7617C8.91797 15.7992 9.70547 15.0117 10.668 15.0117C11.6305 15.0117 12.418 15.7992 12.418 16.7617C12.418 17.7242 11.6305 18.5117 10.668 18.5117Z" fill="#FFDE81"/>
<path d="M10.668 25.5117C9.70547 25.5117 8.91797 24.7242 8.91797 23.7617C8.91797 22.7992 9.70547 22.0117 10.668 22.0117C11.6305 22.0117 12.418 22.7992 12.418 23.7617C12.418 24.7242 11.6305 25.5117 10.668 25.5117Z" fill="#FFDE81"/>
</svg>
