<svg width="52" height="52" viewBox="0 0 52 52" fill="none" xmlns="http://www.w3.org/2000/svg">
<path d="M28.9082 20.6504H4.4707C3.59945 20.6504 2.87695 19.9279 2.87695 19.0566C2.87695 18.1854 3.59945 17.4629 4.4707 17.4629H28.9082C29.7795 17.4629 30.502 18.1854 30.502 19.0566C30.502 19.9279 29.7795 20.6504 28.9082 20.6504Z" fill="#5096FF"/>
<path d="M17.2207 37.6504H12.9707C12.0995 37.6504 11.377 36.9279 11.377 36.0566C11.377 35.1854 12.0995 34.4629 12.9707 34.4629H17.2207C18.092 34.4629 18.8145 35.1854 18.8145 36.0566C18.8145 36.9279 18.092 37.6504 17.2207 37.6504Z" fill="#5096FF"/>
<path d="M31.0332 37.6504H22.5332C21.662 37.6504 20.9395 36.9279 20.9395 36.0566C20.9395 35.1854 21.662 34.4629 22.5332 34.4629H31.0332C31.9045 34.4629 32.627 35.1854 32.627 36.0566C32.627 36.9279 31.9045 37.6504 31.0332 37.6504Z" fill="#5096FF"/>
<path d="M37.5357 46.1504H13.9057C5.4482 46.1504 2.87695 43.6004 2.87695 35.2279V17.7604C2.87695 9.38789 5.4482 6.83789 13.9057 6.83789H28.9082C29.7795 6.83789 30.502 7.56039 30.502 8.43164C30.502 9.30289 29.7795 10.0254 28.9082 10.0254H13.9057C7.2332 10.0254 6.06445 11.1729 6.06445 17.7604V35.2066C6.06445 41.7941 7.2332 42.9416 13.9057 42.9416H37.5145C44.187 42.9416 45.3557 41.7941 45.3557 35.2066V26.5366C45.3557 25.6654 46.0782 24.9429 46.9495 24.9429C47.8207 24.9429 48.5432 25.6654 48.5432 26.5366V35.2066C48.5645 43.6004 45.9932 46.1504 37.5357 46.1504Z" fill="#5096FF"/>
<path d="M46.9707 15.8691H35.2832C34.412 15.8691 33.6895 15.1466 33.6895 14.2754C33.6895 13.4041 34.412 12.6816 35.2832 12.6816H46.9707C47.842 12.6816 48.5645 13.4041 48.5645 14.2754C48.5645 15.1466 47.842 15.8691 46.9707 15.8691Z" fill="#5096FF"/>
<path d="M41.127 21.7129C40.2557 21.7129 39.5332 20.9904 39.5332 20.1191V8.43164C39.5332 7.56039 40.2557 6.83789 41.127 6.83789C41.9982 6.83789 42.7207 7.56039 42.7207 8.43164V20.1191C42.7207 20.9904 41.9982 21.7129 41.127 21.7129Z" fill="#5096FF"/>
</svg>
