<svg width="43" height="43" viewBox="0 0 43 43" fill="none" xmlns="http://www.w3.org/2000/svg">
<path d="M34.2057 21.5566H28.2207C27.5032 21.5566 26.9082 20.9616 26.9082 20.2441V8.01164C26.9082 6.71664 27.4157 5.50914 28.3257 4.59914C29.2357 3.68914 30.4432 3.18164 31.7382 3.18164H31.7557C33.9432 3.19914 36.0082 4.05664 37.5832 5.61414C39.1582 7.20664 40.0157 9.30664 40.0157 11.4941V15.7291C40.0332 19.2116 37.6882 21.5566 34.2057 21.5566ZM29.5332 18.9316H34.2057C36.2357 18.9316 37.4082 17.7591 37.4082 15.7291V11.4941C37.4082 9.98914 36.8132 8.55414 35.7457 7.46914C34.6782 6.41914 33.2432 5.82414 31.7557 5.80664C31.7557 5.80664 31.7557 5.80664 31.7382 5.80664C31.1607 5.80664 30.6007 6.03414 30.1807 6.45414C29.7607 6.87414 29.5332 7.41664 29.5332 8.01164V18.9316Z" fill="#9687FF"/>
<path d="M15.9708 41.8216C15.1483 41.8216 14.3783 41.5066 13.8008 40.9116L10.8958 37.9891C10.7383 37.8316 10.4933 37.8141 10.3183 37.9541L7.32579 40.1941C6.39829 40.8941 5.17328 41.0166 4.12328 40.4916C3.07328 39.9666 2.42578 38.9166 2.42578 37.7441V11.4941C2.42578 6.20914 5.45328 3.18164 10.7383 3.18164H31.7383C32.4558 3.18164 33.0508 3.77664 33.0508 4.49414C33.0508 5.21164 32.4558 5.80664 31.7383 5.80664C30.5308 5.80664 29.5508 6.78664 29.5508 7.99414V37.7441C29.5508 38.9166 28.9033 39.9666 27.8533 40.4916C26.8033 41.0166 25.5783 40.9116 24.6508 40.2116L21.6583 37.9716C21.4833 37.8316 21.2383 37.8666 21.0983 38.0066L18.1583 40.9466C17.5633 41.5066 16.7933 41.8216 15.9708 41.8216ZM10.5633 35.2416C11.3683 35.2416 12.1558 35.5391 12.7508 36.1516L15.6558 39.0741C15.7608 39.1791 15.9008 39.1966 15.9708 39.1966C16.0408 39.1966 16.1808 39.1791 16.2858 39.0741L19.2258 36.1341C20.3108 35.0491 22.0258 34.9441 23.2333 35.8716L26.2083 38.0941C26.4008 38.2341 26.5758 38.1816 26.6633 38.1291C26.7508 38.0766 26.9083 37.9716 26.9083 37.7441V7.99414C26.9083 7.20664 27.1008 6.45414 27.4333 5.80664H10.7208C6.83578 5.80664 5.03328 7.60914 5.03328 11.4941V37.7441C5.03328 37.9891 5.19078 38.0941 5.27828 38.1466C5.38328 38.1991 5.55829 38.2341 5.73329 38.0941L8.72579 35.8541C9.26829 35.4516 9.91578 35.2416 10.5633 35.2416Z" fill="#9687FF"/>
<path d="M20.2227 25.6343C19.2427 25.6343 18.4727 24.8468 18.4727 23.8843C18.4727 22.9218 19.2602 22.1343 20.2227 22.1343C21.1852 22.1343 21.9727 22.9218 21.9727 23.8843C21.9727 24.8468 21.1852 25.6343 20.2227 25.6343Z" fill="#9687FF"/>
<path d="M11.7188 18.5466C10.7387 18.5466 9.96875 17.7591 9.96875 16.7966C9.96875 15.8341 10.7562 15.0466 11.7188 15.0466C12.6813 15.0466 13.4688 15.8341 13.4688 16.7966C13.4688 17.7591 12.6813 18.5466 11.7188 18.5466Z" fill="#9687FF"/>
<path d="M11.1929 26.3341C10.8604 26.3341 10.5279 26.2116 10.2654 25.9491C9.75789 25.4416 9.75789 24.6016 10.2654 24.0941L19.8204 14.5391C20.3279 14.0316 21.1679 14.0316 21.6754 14.5391C22.1829 15.0466 22.1829 15.8866 21.6754 16.3941L12.1204 25.9491C11.8754 26.1941 11.5254 26.3341 11.1929 26.3341Z" fill="#9687FF"/>
</svg>
