<svg width="52" height="52" viewBox="0 0 52 52" fill="none" xmlns="http://www.w3.org/2000/svg">
<path d="M21.7041 39.563H13.6504C12.7791 39.563 12.0566 38.8405 12.0566 37.9693V27.0893C12.0566 24.8793 13.8629 23.073 16.0729 23.073H21.7041C22.5753 23.073 23.2978 23.7955 23.2978 24.6667V37.948C23.2978 38.8405 22.5753 39.563 21.7041 39.563ZM15.2441 36.3755H20.1103V26.2818H16.0729C15.6266 26.2818 15.2441 26.6429 15.2441 27.1104V36.3755V36.3755Z" fill="#00CEC2"/>
<path d="M29.7364 39.5631H21.6826C20.8114 39.5631 20.0889 38.8406 20.0889 37.9694V17.4418C20.0889 15.2318 21.8951 13.4255 24.1051 13.4255H27.3351C29.5451 13.4255 31.3513 15.2318 31.3513 17.4418V37.9694C31.3301 38.8406 30.6289 39.5631 29.7364 39.5631ZM23.2976 36.3756H28.1638V17.4418C28.1638 16.9956 27.8026 16.613 27.3351 16.613H24.1051C23.6588 16.613 23.2764 16.9743 23.2764 17.4418V36.3756H23.2976Z" fill="#00CEC2"/>
<path d="M37.792 39.5631H29.7383C28.867 39.5631 28.1445 38.8406 28.1445 37.9694V28.3005C28.1445 27.4293 28.867 26.7068 29.7383 26.7068H35.3695C37.5795 26.7068 39.3857 28.5131 39.3857 30.7231V37.9694C39.3857 38.8406 38.6845 39.5631 37.792 39.5631ZM31.332 36.3756H36.1982V30.7231C36.1982 30.2768 35.837 29.8943 35.3695 29.8943H31.332V36.3756V36.3756Z" fill="#00CEC2"/>
<path d="M32.0957 49.3379H19.3457C7.80695 49.3379 2.87695 44.4079 2.87695 32.8691V20.1191C2.87695 8.58039 7.80695 3.65039 19.3457 3.65039H32.0957C43.6345 3.65039 48.5645 8.58039 48.5645 20.1191V32.8691C48.5645 44.4079 43.6345 49.3379 32.0957 49.3379ZM19.3457 6.83789C9.54945 6.83789 6.06445 10.3229 6.06445 20.1191V32.8691C6.06445 42.6654 9.54945 46.1504 19.3457 46.1504H32.0957C41.892 46.1504 45.377 42.6654 45.377 32.8691V20.1191C45.377 10.3229 41.892 6.83789 32.0957 6.83789H19.3457Z" fill="#00CEC2"/>
</svg>
