<svg width="50" height="51" viewBox="0 0 50 51" fill="none" xmlns="http://www.w3.org/2000/svg">
<circle cx="25" cy="25.9941" r="25" fill="white" fill-opacity="0.2"/>
<circle cx="25" cy="25.9941" r="24" stroke="white" stroke-opacity="0.3" stroke-width="2"/>
<path d="M25 15.9941C27.717 15.9941 28.056 16.0041 29.122 16.0541C30.187 16.1041 30.912 16.2711 31.55 16.5191C32.21 16.7731 32.766 17.1171 33.322 17.6721C33.8305 18.172 34.224 18.7767 34.475 19.4441C34.722 20.0811 34.89 20.8071 34.94 21.8721C34.987 22.9381 35 23.2771 35 25.9941C35 28.7111 34.99 29.0501 34.94 30.1161C34.89 31.1811 34.722 31.9061 34.475 32.5441C34.2247 33.2119 33.8311 33.8168 33.322 34.3161C32.822 34.8245 32.2173 35.2179 31.55 35.4691C30.913 35.7161 30.187 35.8841 29.122 35.9341C28.056 35.9811 27.717 35.9941 25 35.9941C22.283 35.9941 21.944 35.9841 20.878 35.9341C19.813 35.8841 19.088 35.7161 18.45 35.4691C17.7823 35.2186 17.1775 34.8251 16.678 34.3161C16.1694 33.8163 15.7759 33.2116 15.525 32.5441C15.277 31.9071 15.11 31.1811 15.06 30.1161C15.013 29.0501 15 28.7111 15 25.9941C15 23.2771 15.01 22.9381 15.06 21.8721C15.11 20.8061 15.277 20.0821 15.525 19.4441C15.7752 18.7763 16.1688 18.1715 16.678 17.6721C17.1777 17.1634 17.7824 16.7699 18.45 16.5191C19.088 16.2711 19.812 16.1041 20.878 16.0541C21.944 16.0071 22.283 15.9941 25 15.9941ZM25 20.9941C23.6739 20.9941 22.4021 21.5209 21.4645 22.4586C20.5268 23.3963 20 24.6681 20 25.9941C20 27.3202 20.5268 28.592 21.4645 29.5297C22.4021 30.4674 23.6739 30.9941 25 30.9941C26.3261 30.9941 27.5979 30.4674 28.5355 29.5297C29.4732 28.592 30 27.3202 30 25.9941C30 24.6681 29.4732 23.3963 28.5355 22.4586C27.5979 21.5209 26.3261 20.9941 25 20.9941V20.9941ZM31.5 20.7441C31.5 20.4126 31.3683 20.0947 31.1339 19.8603C30.8995 19.6258 30.5815 19.4941 30.25 19.4941C29.9185 19.4941 29.6005 19.6258 29.3661 19.8603C29.1317 20.0947 29 20.4126 29 20.7441C29 21.0757 29.1317 21.3936 29.3661 21.628C29.6005 21.8624 29.9185 21.9941 30.25 21.9941C30.5815 21.9941 30.8995 21.8624 31.1339 21.628C31.3683 21.3936 31.5 21.0757 31.5 20.7441ZM25 22.9941C25.7956 22.9941 26.5587 23.3102 27.1213 23.8728C27.6839 24.4354 28 25.1985 28 25.9941C28 26.7898 27.6839 27.5529 27.1213 28.1155C26.5587 28.6781 25.7956 28.9941 25 28.9941C24.2044 28.9941 23.4413 28.6781 22.8787 28.1155C22.3161 27.5529 22 26.7898 22 25.9941C22 25.1985 22.3161 24.4354 22.8787 23.8728C23.4413 23.3102 24.2044 22.9941 25 22.9941V22.9941Z" fill="#00CEC2"/>
</svg>
