<svg width="85" height="25" viewBox="0 0 85 25" fill="none" xmlns="http://www.w3.org/2000/svg">
<path d="M12.9591 0.994101C10.4049 7.59489 9.86184 14.1119 12.9591 19.8142C10.1334 20.8099 7.87054 22.2581 5.79845 24.8266C4.34722 21.7879 3.16443 18.5582 2.7577 15.1728C2.35097 11.7873 2.76885 8.22566 4.34438 5.2621C7.599 3.52177 10.1334 2.34509 12.9591 0.994101Z" fill="url(#paint0_linear_1162_17106)"/>
<path d="M0.145684 9.78094C-0.636474 14.2037 1.88303 20.7394 4.07308 22.8718C0.692663 15.2899 1.84035 8.6226 2.57037 6.77979C1.63178 7.88547 0.849626 8.91218 0.145684 9.78094Z" fill="url(#paint1_linear_1162_17106)"/>
<path d="M28.1315 9.97508V17.651H26.1673V13.0476L24.364 17.651H22.7789L20.9641 13.0367V17.651H19V9.97508H21.3202L23.583 15.2892L25.8227 9.97508H28.1315Z" fill="white"/>
<path d="M32.6911 17.7385C32.0632 17.7385 31.4965 17.6109 30.9911 17.3558C30.4934 17.1007 30.099 16.7362 29.8081 16.2624C29.5247 15.7885 29.3831 15.2345 29.3831 14.6003C29.3831 13.9734 29.5286 13.4231 29.8196 12.9492C30.1105 12.4681 30.5087 12.1 31.0141 11.8449C31.5195 11.5897 32.0861 11.4622 32.7141 11.4622C33.342 11.4622 33.9086 11.5897 34.414 11.8449C34.9194 12.1 35.3176 12.4681 35.6086 12.9492C35.8995 13.4231 36.045 13.9734 36.045 14.6003C36.045 15.2272 35.8957 15.7812 35.5971 16.2624C35.3061 16.7362 34.9041 17.1007 34.391 17.3558C33.8856 17.6109 33.319 17.7385 32.6911 17.7385ZM32.6911 16.1202C33.0663 16.1202 33.3841 15.989 33.6444 15.7266C33.9124 15.4641 34.0464 15.0887 34.0464 14.6003C34.0464 14.1119 33.9163 13.7365 33.6559 13.4741C33.4032 13.2117 33.0893 13.0804 32.7141 13.0804C32.3312 13.0804 32.0134 13.2117 31.7607 13.4741C31.508 13.7292 31.3817 14.1046 31.3817 14.6003C31.3817 15.0887 31.5042 15.4641 31.7492 15.7266C32.0019 15.989 32.3159 16.1202 32.6911 16.1202Z" fill="white"/>
<path d="M41.222 11.484C41.9725 11.484 42.5697 11.7173 43.0139 12.1838C43.4656 12.6431 43.6915 13.2773 43.6915 14.0864V17.651H41.7389V14.3379C41.7389 13.9297 41.6279 13.6126 41.4058 13.3866C41.1837 13.1606 40.8851 13.0476 40.5099 13.0476C40.1347 13.0476 39.836 13.1606 39.614 13.3866C39.3919 13.6126 39.2809 13.9297 39.2809 14.3379V17.651H37.3167V11.5496H39.2809V12.3588C39.48 12.0891 39.748 11.8777 40.0849 11.7246C40.4218 11.5642 40.8009 11.484 41.222 11.484Z" fill="white"/>
<path d="M51.3278 14.5019C51.3278 14.6769 51.3163 14.8591 51.2934 15.0486H46.8482C46.8789 15.4277 47.0052 15.7193 47.2273 15.9234C47.457 16.1202 47.7365 16.2186 48.0658 16.2186C48.5558 16.2186 48.8966 16.0218 49.088 15.6282H51.1785C51.0713 16.0291 50.876 16.3899 50.5927 16.7107C50.317 17.0314 49.9686 17.2829 49.5475 17.4651C49.1263 17.6474 48.6554 17.7385 48.1347 17.7385C47.5068 17.7385 46.9478 17.6109 46.4577 17.3558C45.9676 17.1007 45.5848 16.7362 45.3091 16.2624C45.0334 15.7885 44.8956 15.2345 44.8956 14.6003C44.8956 13.9661 45.0296 13.4121 45.2976 12.9383C45.5733 12.4645 45.9562 12.1 46.4462 11.8449C46.9363 11.5897 47.4991 11.4622 48.1347 11.4622C48.7549 11.4622 49.3063 11.5861 49.7887 11.8339C50.2711 12.0818 50.6463 12.4353 50.9143 12.8946C51.19 13.3538 51.3278 13.8896 51.3278 14.5019ZM49.3178 14.0099C49.3178 13.6891 49.2029 13.434 48.9732 13.2445C48.7435 13.0549 48.4563 12.9602 48.1117 12.9602C47.7824 12.9602 47.503 13.0513 47.2732 13.2335C47.0512 13.4158 46.9133 13.6745 46.8597 14.0099H49.3178Z" fill="white"/>
<path d="M59.1408 11.5496L55.1207 20.5486H53.0072L54.4774 17.4433L51.8701 11.5496H54.0639L55.5457 15.3657L57.0159 11.5496H59.1408Z" fill="white"/>
<path d="M65.3299 9.97508V11.4731H62.0449V13.0914H64.5029V14.5457H62.0449V17.651H60.0808V9.97508H65.3299Z" fill="white"/>
<path d="M68.5561 9.55957V17.651H66.592V9.55957H68.5561Z" fill="white"/>
<path d="M69.8187 14.5894C69.8187 13.9625 69.9412 13.4121 70.1862 12.9383C70.4389 12.4645 70.7797 12.1 71.2085 11.8449C71.6373 11.5897 72.1159 11.4622 72.6442 11.4622C73.096 11.4622 73.4904 11.5496 73.8273 11.7246C74.1719 11.8995 74.4361 12.1292 74.6199 12.4134V11.5496H76.584V17.651H74.6199V16.7872C74.4284 17.0715 74.1604 17.3011 73.8158 17.4761C73.4789 17.651 73.0845 17.7385 72.6328 17.7385C72.1121 17.7385 71.6373 17.6109 71.2085 17.3558C70.7797 17.0934 70.4389 16.7252 70.1862 16.2514C69.9412 15.7703 69.8187 15.2163 69.8187 14.5894ZM74.6199 14.6003C74.6199 14.1338 74.482 13.7657 74.2064 13.4959C73.9384 13.2262 73.6091 13.0914 73.2186 13.0914C72.828 13.0914 72.4949 13.2262 72.2193 13.4959C71.9513 13.7584 71.8172 14.1229 71.8172 14.5894C71.8172 15.0559 71.9513 15.4277 72.2193 15.7047C72.4949 15.9744 72.828 16.1093 73.2186 16.1093C73.6091 16.1093 73.9384 15.9744 74.2064 15.7047C74.482 15.435 74.6199 15.0669 74.6199 14.6003Z" fill="white"/>
<path d="M80.1988 12.4134C80.3902 12.1292 80.6544 11.8995 80.9913 11.7246C81.3282 11.5496 81.7226 11.4622 82.1744 11.4622C82.7028 11.4622 83.1813 11.5897 83.6102 11.8449C84.039 12.1 84.3759 12.4645 84.6209 12.9383C84.8736 13.4121 85 13.9625 85 14.5894C85 15.2163 84.8736 15.7703 84.6209 16.2514C84.3759 16.7252 84.039 17.0934 83.6102 17.3558C83.1813 17.6109 82.7028 17.7385 82.1744 17.7385C81.7303 17.7385 81.3359 17.651 80.9913 17.4761C80.6544 17.3011 80.3902 17.0751 80.1988 16.7981V20.5596H78.2347V11.5496H80.1988V12.4134ZM83.0014 14.5894C83.0014 14.1229 82.8636 13.7584 82.5879 13.4959C82.3199 13.2262 81.9868 13.0914 81.5886 13.0914C81.1981 13.0914 80.865 13.2262 80.5893 13.4959C80.3213 13.7657 80.1873 14.1338 80.1873 14.6003C80.1873 15.0669 80.3213 15.435 80.5893 15.7047C80.865 15.9744 81.1981 16.1093 81.5886 16.1093C81.9791 16.1093 82.3122 15.9744 82.5879 15.7047C82.8636 15.4277 83.0014 15.0559 83.0014 14.5894Z" fill="white"/>
<defs>
<linearGradient id="paint0_linear_1162_17106" x1="3.18281" y1="19.6795" x2="3.97122" y2="6.59183" gradientUnits="userSpaceOnUse">
<stop stop-color="#00CEC2"/>
<stop offset="1" stop-color="#705BFF"/>
</linearGradient>
<linearGradient id="paint1_linear_1162_17106" x1="2.64878" y1="18.8634" x2="-3.91258" y2="11.6607" gradientUnits="userSpaceOnUse">
<stop stop-color="#00CEC2"/>
<stop offset="1" stop-color="#705BFF"/>
</linearGradient>
</defs>
</svg>
