<svg width="159" height="45" viewBox="0 0 159 45" fill="none" xmlns="http://www.w3.org/2000/svg">
<path d="M24.2405 0.140413C19.4627 12.4878 18.4468 24.6784 24.2405 35.3451C18.9547 37.2076 14.7219 39.9166 10.8459 44.7212C8.1312 39.037 5.91868 32.9957 5.15786 26.6629C4.39704 20.3301 5.17872 13.6677 8.12588 8.12409C14.2139 4.86864 18.9547 2.66756 24.2405 0.140413Z" fill="url(#paint0_linear_940_19815)"/>
<path d="M0.272515 16.5773C-1.19058 24.8504 3.52237 37.0761 7.61905 41.0649C1.29569 26.8824 3.44254 14.4105 4.8081 10.9634C3.05238 13.0317 1.5893 14.9522 0.272515 16.5773Z" fill="url(#paint1_linear_940_19815)"/>
<path d="M52.6222 16.9398V31.2984H48.9481V22.6873L45.5749 31.2984H42.6098L39.2151 22.6669V31.2984H35.541V16.9398H39.8811L44.1138 26.8804L48.3036 16.9398H52.6222Z" fill="white"/>
<path d="M61.1514 31.462C59.9768 31.462 58.9169 31.2234 57.9715 30.7461C57.0404 30.2689 56.3028 29.5871 55.7585 28.7007C55.2285 27.8144 54.9635 26.7781 54.9635 25.5918C54.9635 24.4191 55.2356 23.3896 55.7799 22.5033C56.3243 21.6033 57.0691 20.9147 58.0145 20.4374C58.9598 19.9602 60.0198 19.7215 61.1944 19.7215C62.3689 19.7215 63.4289 19.9602 64.3743 20.4374C65.3196 20.9147 66.0645 21.6033 66.6088 22.5033C67.1531 23.3896 67.4252 24.4191 67.4252 25.5918C67.4252 26.7645 67.1459 27.8008 66.5873 28.7007C66.043 29.5871 65.291 30.2689 64.3313 30.7461C63.3859 31.2234 62.3259 31.462 61.1514 31.462ZM61.1514 28.4348C61.8533 28.4348 62.4477 28.1894 62.9347 27.6985C63.436 27.2076 63.6867 26.5054 63.6867 25.5918C63.6867 24.6782 63.4432 23.9759 62.9562 23.485C62.4835 22.9941 61.8962 22.7487 61.1944 22.7487C60.4782 22.7487 59.8837 22.9941 59.411 23.485C58.9384 23.9623 58.702 24.6645 58.702 25.5918C58.702 26.5054 58.9312 27.2076 59.3896 27.6985C59.8622 28.1894 60.4495 28.4348 61.1514 28.4348Z" fill="white"/>
<path d="M77.1093 19.7625C78.513 19.7625 79.6303 20.1988 80.4611 21.0715C81.3062 21.9306 81.7287 23.1169 81.7287 24.6304V31.2984H78.0761V25.1009C78.0761 24.3373 77.8684 23.7441 77.4531 23.3214C77.0377 22.8987 76.479 22.6873 75.7772 22.6873C75.0753 22.6873 74.5167 22.8987 74.1013 23.3214C73.6859 23.7441 73.4782 24.3373 73.4782 25.1009V31.2984H69.8041V19.8852H73.4782V21.3988C73.8506 20.8942 74.3519 20.4988 74.9822 20.2124C75.6124 19.9124 76.3215 19.7625 77.1093 19.7625Z" fill="white"/>
<path d="M96.0131 25.4077C96.0131 25.7349 95.9916 26.0758 95.9486 26.4304H87.6336C87.6909 27.1394 87.9273 27.6849 88.3427 28.0667C88.7724 28.4348 89.2952 28.6189 89.9111 28.6189C90.8278 28.6189 91.4653 28.2508 91.8234 27.5144H95.7338C95.5332 28.2644 95.168 28.9394 94.638 29.5393C94.1223 30.1393 93.4706 30.6098 92.6828 30.9507C91.895 31.2915 91.014 31.462 90.04 31.462C88.8655 31.462 87.8198 31.2234 86.9031 30.7461C85.9864 30.2689 85.2702 29.5871 84.7545 28.7007C84.2389 27.8144 83.981 26.7781 83.981 25.5918C83.981 24.4055 84.2317 23.3691 84.733 22.4828C85.2487 21.5965 85.9649 20.9147 86.8816 20.4374C87.7983 19.9602 88.8511 19.7215 90.04 19.7215C91.2003 19.7215 92.2316 19.9534 93.134 20.417C94.0364 20.8806 94.7383 21.5419 95.2396 22.401C95.7553 23.26 96.0131 24.2623 96.0131 25.4077ZM92.2531 24.4873C92.2531 23.8873 92.0382 23.41 91.6085 23.0555C91.1788 22.701 90.6416 22.5237 89.9971 22.5237C89.3811 22.5237 88.8583 22.6942 88.4286 23.0351C88.0132 23.3759 87.7554 23.86 87.6551 24.4873H92.2531Z" fill="white"/>
<path d="M110.628 19.8852L103.108 36.7186H99.1545L101.905 30.9097L97.0274 19.8852H101.131L103.903 27.0235L106.653 19.8852H110.628Z" fill="white"/>
<path d="M122.205 16.9398V19.742H116.06V22.7692H120.658V25.4895H116.06V31.2984H112.386V16.9398H122.205Z" fill="white"/>
<path d="M128.24 16.1626V31.2984H124.566V16.1626H128.24Z" fill="white"/>
<path d="M130.602 25.5713C130.602 24.3986 130.831 23.3691 131.289 22.4828C131.762 21.5965 132.399 20.9147 133.202 20.4374C134.004 19.9602 134.899 19.7215 135.887 19.7215C136.732 19.7215 137.47 19.8852 138.1 20.2124C138.745 20.5397 139.239 20.9692 139.583 21.501V19.8852H143.257V31.2984H139.583V29.6825C139.225 30.2143 138.723 30.6438 138.079 30.9711C137.449 31.2984 136.711 31.462 135.866 31.462C134.892 31.462 134.004 31.2234 133.202 30.7461C132.399 30.2552 131.762 29.5666 131.289 28.6803C130.831 27.7803 130.602 26.744 130.602 25.5713ZM139.583 25.5918C139.583 24.7191 139.325 24.0305 138.809 23.5259C138.308 23.0214 137.692 22.7692 136.962 22.7692C136.231 22.7692 135.608 23.0214 135.092 23.5259C134.591 24.0168 134.34 24.6986 134.34 25.5713C134.34 26.444 134.591 27.1394 135.092 27.6576C135.608 28.1621 136.231 28.4144 136.962 28.4144C137.692 28.4144 138.308 28.1621 138.809 27.6576C139.325 27.1531 139.583 26.4645 139.583 25.5918Z" fill="white"/>
<path d="M150.019 21.501C150.377 20.9692 150.871 20.5397 151.501 20.2124C152.132 19.8852 152.869 19.7215 153.714 19.7215C154.703 19.7215 155.598 19.9602 156.4 20.4374C157.202 20.9147 157.832 21.5965 158.291 22.4828C158.763 23.3691 159 24.3986 159 25.5713C159 26.744 158.763 27.7803 158.291 28.6803C157.832 29.5666 157.202 30.2552 156.4 30.7461C155.598 31.2234 154.703 31.462 153.714 31.462C152.884 31.462 152.146 31.2984 151.501 30.9711C150.871 30.6438 150.377 30.2211 150.019 29.703V36.7391H146.345V19.8852H150.019V21.501ZM155.261 25.5713C155.261 24.6986 155.003 24.0168 154.488 23.5259C153.986 23.0214 153.363 22.7692 152.619 22.7692C151.888 22.7692 151.265 23.0214 150.749 23.5259C150.248 24.0305 149.997 24.7191 149.997 25.5918C149.997 26.4645 150.248 27.1531 150.749 27.6576C151.265 28.1621 151.888 28.4144 152.619 28.4144C153.349 28.4144 153.972 28.1621 154.488 27.6576C155.003 27.1394 155.261 26.444 155.261 25.5713Z" fill="white"/>
<defs>
<linearGradient id="paint0_linear_940_19815" x1="5.95305" y1="35.0931" x2="7.42785" y2="10.6115" gradientUnits="userSpaceOnUse">
<stop stop-color="#00CEC2"/>
<stop offset="1" stop-color="#705BFF"/>
</linearGradient>
<linearGradient id="paint1_linear_940_19815" x1="4.95477" y1="33.5668" x2="-7.31883" y2="20.0935" gradientUnits="userSpaceOnUse">
<stop stop-color="#00CEC2"/>
<stop offset="1" stop-color="#705BFF"/>
</linearGradient>
</defs>
</svg>
