<svg width="50" height="51" viewBox="0 0 50 51" fill="none" xmlns="http://www.w3.org/2000/svg">
<circle cx="25" cy="25.9941" r="25" fill="white" fill-opacity="0.2"/>
<circle cx="25" cy="25.9941" r="24" stroke="white" stroke-opacity="0.3" stroke-width="2"/>
<path d="M26.3102 34.3943C24.9879 34.6008 23.6355 34.4922 22.3631 34.0773C21.0907 33.6624 19.9343 32.9529 18.9879 32.0065C18.0416 31.0602 17.3321 29.9038 16.9171 28.6314C16.5022 27.359 16.3936 26.0066 16.6002 24.6843C16.0789 23.6928 15.8884 22.5606 16.0566 21.4531C16.2247 20.3456 16.7427 19.321 17.5348 18.5289C18.3268 17.7368 19.3515 17.2189 20.459 17.0507C21.5664 16.8826 22.6987 17.073 23.6902 17.5943C25.0125 17.3877 26.3648 17.4964 27.6372 17.9113C28.9096 18.3262 30.0661 19.0357 31.0124 19.982C31.9588 20.9284 32.6683 22.0848 33.0832 23.3572C33.4981 24.6296 33.6067 25.982 33.4002 27.3043C33.9214 28.2958 34.1119 29.428 33.9437 30.5355C33.7756 31.643 33.2576 32.6676 32.4655 33.4597C31.6735 34.2518 30.6488 34.7697 29.5413 34.9379C28.4339 35.106 27.3016 34.9156 26.3102 34.3943V34.3943ZM25.0522 31.1503H25.0122C27.8842 31.1503 29.3152 29.7643 29.3152 27.9073C29.3152 26.7093 28.7642 25.4363 26.5892 24.9493L24.6062 24.5093C23.8512 24.3373 22.9842 24.1093 22.9842 23.3943C22.9842 22.6793 23.6042 22.1813 24.7082 22.1813C26.9382 22.1813 26.7352 23.7093 27.8392 23.7093C28.4152 23.7093 28.9322 23.3673 28.9322 22.7793C28.9322 21.4093 26.7352 20.3793 24.8762 20.3793C22.8552 20.3793 20.7032 21.2383 20.7032 23.5233C20.7032 24.6213 21.0972 25.7933 23.2632 26.3363L25.9522 27.0073C26.7682 27.2093 26.9702 27.6663 26.9702 28.0793C26.9702 28.7663 26.2862 29.4373 25.0522 29.4373C22.6352 29.4373 22.9742 27.5803 21.6782 27.5803C21.0982 27.5803 20.6752 27.9783 20.6752 28.5513C20.6752 29.6653 22.0272 31.1493 25.0522 31.1493V31.1503Z" fill="#00CEC2"/>
</svg>
