<svg width="24" height="25" viewBox="0 0 24 25" fill="none" xmlns="http://www.w3.org/2000/svg">
<path d="M13.3102 21.3943C11.9879 21.6008 10.6355 21.4922 9.36308 21.0773C8.09069 20.6624 6.93425 19.9529 5.98791 19.0065C5.04156 18.0602 4.33205 16.9038 3.91713 15.6314C3.50221 14.359 3.39361 13.0066 3.60016 11.6843C3.07889 10.6928 2.88841 9.56059 3.05657 8.45311C3.22472 7.34564 3.74269 6.32098 4.53477 5.52891C5.32684 4.73683 6.3515 4.21886 7.45897 4.05071C8.56644 3.88255 9.69867 4.07303 10.6902 4.5943C12.0125 4.38775 13.3648 4.49635 14.6372 4.91127C15.9096 5.32619 17.0661 6.0357 18.0124 6.98205C18.9588 7.9284 19.6683 9.08483 20.0832 10.3572C20.4981 11.6296 20.6067 12.982 20.4002 14.3043C20.9214 15.2958 21.1119 16.428 20.9437 17.5355C20.7756 18.643 20.2576 19.6676 19.4655 20.4597C18.6735 21.2518 17.6488 21.7697 16.5413 21.9379C15.4339 22.106 14.3016 21.9156 13.3102 21.3943ZM12.0522 18.1503H12.0122C14.8842 18.1503 16.3152 16.7643 16.3152 14.9073C16.3152 13.7093 15.7642 12.4363 13.5892 11.9493L11.6062 11.5093C10.8512 11.3373 9.98416 11.1093 9.98416 10.3943C9.98416 9.6793 10.6042 9.1813 11.7082 9.1813C13.9382 9.1813 13.7352 10.7093 14.8392 10.7093C15.4152 10.7093 15.9322 10.3673 15.9322 9.7793C15.9322 8.4093 13.7352 7.3793 11.8762 7.3793C9.85516 7.3793 7.70316 8.2383 7.70316 10.5233C7.70316 11.6213 8.09716 12.7933 10.2632 13.3363L12.9522 14.0073C13.7682 14.2093 13.9702 14.6663 13.9702 15.0793C13.9702 15.7663 13.2862 16.4373 12.0522 16.4373C9.63516 16.4373 9.97416 14.5803 8.67816 14.5803C8.09816 14.5803 7.67516 14.9783 7.67516 15.5513C7.67516 16.6653 9.02716 18.1493 12.0522 18.1493V18.1503Z" fill="#00CEC2"/>
</svg>
