<svg width="96" height="84" viewBox="0 0 96 84" fill="none" xmlns="http://www.w3.org/2000/svg">
<rect y="0.994141" width="96" height="83" rx="25" fill="#5096FF"/>
<path d="M50.6875 36.6504H26.25C25.3788 36.6504 24.6562 35.9279 24.6562 35.0566C24.6562 34.1854 25.3788 33.4629 26.25 33.4629H50.6875C51.5588 33.4629 52.2812 34.1854 52.2812 35.0566C52.2812 35.9279 51.5588 36.6504 50.6875 36.6504Z" fill="white"/>
<path d="M39 53.6504H34.75C33.8788 53.6504 33.1562 52.9279 33.1562 52.0566C33.1562 51.1854 33.8788 50.4629 34.75 50.4629H39C39.8713 50.4629 40.5938 51.1854 40.5938 52.0566C40.5938 52.9279 39.8713 53.6504 39 53.6504Z" fill="white"/>
<path d="M52.8125 53.6504H44.3125C43.4413 53.6504 42.7188 52.9279 42.7188 52.0566C42.7188 51.1854 43.4413 50.4629 44.3125 50.4629H52.8125C53.6838 50.4629 54.4062 51.1854 54.4062 52.0566C54.4062 52.9279 53.6838 53.6504 52.8125 53.6504Z" fill="white"/>
<path d="M59.315 62.1504H35.685C27.2275 62.1504 24.6562 59.6004 24.6562 51.2279V33.7604C24.6562 25.3879 27.2275 22.8379 35.685 22.8379H50.6875C51.5588 22.8379 52.2813 23.5604 52.2813 24.4316C52.2813 25.3029 51.5588 26.0254 50.6875 26.0254H35.685C29.0125 26.0254 27.8438 27.1729 27.8438 33.7604V51.2066C27.8438 57.7941 29.0125 58.9416 35.685 58.9416H59.2938C65.9663 58.9416 67.135 57.7941 67.135 51.2066V40.4116C67.135 39.5404 67.8575 38.8179 68.7288 38.8179C69.6 38.8179 70.3225 39.5404 70.3225 40.4116V51.2066C70.3438 59.6004 67.7725 62.1504 59.315 62.1504Z" fill="white"/>
<path d="M60.2496 34.5254C59.8458 34.5254 59.4421 34.3766 59.1233 34.0579L55.9358 30.8704C55.3196 30.2541 55.3196 29.2341 55.9358 28.6179C56.5521 28.0016 57.5721 28.0016 58.1883 28.6179L60.2496 30.6791L67.6233 23.3054C68.2396 22.6891 69.2596 22.6891 69.8758 23.3054C70.4921 23.9216 70.4921 24.9416 69.8758 25.5579L61.3758 34.0579C61.0571 34.3766 60.6533 34.5254 60.2496 34.5254Z" fill="white"/>
</svg>
