<svg width="96" height="84" viewBox="0 0 96 84" fill="none" xmlns="http://www.w3.org/2000/svg">
<rect y="0.994141" width="96" height="83" rx="25" fill="#00CEC2"/>
<path d="M52.8125 36.6504H26.25C25.3787 36.6504 24.6562 35.9279 24.6562 35.0567C24.6562 34.1854 25.3787 33.4629 26.25 33.4629H52.8125C53.6837 33.4629 54.4062 34.1854 54.4062 35.0567C54.4062 35.9279 53.6837 36.6504 52.8125 36.6504Z" fill="white"/>
<path d="M39 53.6504H34.75C33.8787 53.6504 33.1562 52.9279 33.1562 52.0566C33.1562 51.1854 33.8787 50.4629 34.75 50.4629H39C39.8712 50.4629 40.5937 51.1854 40.5937 52.0566C40.5937 52.9279 39.8712 53.6504 39 53.6504Z" fill="white"/>
<path d="M52.8125 53.6504H44.3125C43.4413 53.6504 42.7188 52.9279 42.7188 52.0566C42.7188 51.1854 43.4413 50.4629 44.3125 50.4629H52.8125C53.6838 50.4629 54.4062 51.1854 54.4062 52.0566C54.4062 52.9279 53.6838 53.6504 52.8125 53.6504Z" fill="white"/>
<path d="M59.315 62.1504H35.685C27.2275 62.1504 24.6562 59.6004 24.6562 51.2279V33.7604C24.6562 25.3879 27.2275 22.8379 35.685 22.8379H52.8125C53.6838 22.8379 54.4063 23.5604 54.4063 24.4316C54.4063 25.3029 53.6838 26.0254 52.8125 26.0254H35.685C29.0125 26.0254 27.8438 27.1729 27.8438 33.7604V51.2066C27.8438 57.7941 29.0125 58.9416 35.685 58.9416H59.2938C65.9663 58.9416 67.135 57.7941 67.135 51.2066V46.7866C67.135 45.9154 67.8575 45.1929 68.7288 45.1929C69.6 45.1929 70.3225 45.9154 70.3225 46.7866V51.2066C70.3438 59.6004 67.7725 62.1504 59.315 62.1504Z" fill="white"/>
<path d="M64.5 38.7754C64.2875 38.7754 64.0962 38.7329 63.8837 38.6479C63.2887 38.3929 62.9062 37.8191 62.9062 37.1816V24.4316C62.9062 23.5604 63.6287 22.8379 64.5 22.8379C65.3712 22.8379 66.0937 23.5604 66.0937 24.4316V33.3354L67.6237 31.8054C68.24 31.1891 69.26 31.1891 69.8763 31.8054C70.4925 32.4216 70.4925 33.4416 69.8763 34.0579L65.6263 38.3079C65.3288 38.6054 64.925 38.7754 64.5 38.7754Z" fill="white"/>
<path d="M64.5005 38.7754C64.0968 38.7754 63.693 38.6267 63.3743 38.3079L59.1243 34.0579C58.508 33.4417 58.508 32.4217 59.1243 31.8054C59.7405 31.1892 60.7606 31.1892 61.3768 31.8054L65.6268 36.0554C66.2431 36.6717 66.2431 37.6917 65.6268 38.3079C65.3081 38.6267 64.9043 38.7754 64.5005 38.7754Z" fill="white"/>
</svg>
