<svg width="96" height="84" viewBox="0 0 96 84" fill="none" xmlns="http://www.w3.org/2000/svg">
<rect y="0.994141" width="96" height="83" rx="25" fill="#705BFF"/>
<path d="M69.75 28.4029H48.5C47.6288 28.4029 46.9062 27.6804 46.9062 26.8091C46.9062 25.9379 47.6288 25.2154 48.5 25.2154H69.75C70.6213 25.2154 71.3438 25.9379 71.3438 26.8091C71.3438 27.7016 70.6213 28.4029 69.75 28.4029Z" fill="white"/>
<path d="M65.0317 38.9004H53.238C48.5843 38.9004 46.9268 37.2641 46.9268 32.6316V23.9191C46.9268 19.2866 48.5843 17.6504 53.238 17.6504H65.0317C69.6855 17.6504 71.343 19.2866 71.343 23.9191V32.6529C71.343 37.2641 69.6855 38.9004 65.0317 38.9004ZM53.2167 20.8379C50.3267 20.8379 50.093 21.0716 50.093 23.9191V32.6529C50.093 35.5004 50.3267 35.7341 53.2167 35.7341H65.0105C67.9005 35.7341 68.1342 35.5004 68.1342 32.6529V23.9191C68.1342 21.0716 67.9005 20.8379 65.0105 20.8379H53.2167Z" fill="white"/>
<path d="M48.5 52.8404H27.25C26.3788 52.8404 25.6562 52.1179 25.6562 51.2466C25.6562 50.3754 26.3788 49.6529 27.25 49.6529H48.5C49.3713 49.6529 50.0938 50.3754 50.0938 51.2466C50.0938 52.1391 49.3713 52.8404 48.5 52.8404Z" fill="white"/>
<path d="M43.7817 63.3379H31.988C27.3343 63.3379 25.6768 61.7016 25.6768 57.0691V48.3566C25.6768 43.7241 27.3343 42.0879 31.988 42.0879H43.7817C48.4355 42.0879 50.093 43.7241 50.093 48.3566V57.0904C50.093 61.7016 48.4355 63.3379 43.7817 63.3379ZM31.9667 45.2754C29.0767 45.2754 28.843 45.5091 28.843 48.3566V57.0904C28.843 59.9379 29.0767 60.1716 31.9667 60.1716H43.7605C46.6505 60.1716 46.8842 59.9379 46.8842 57.0904V48.3566C46.8842 45.5091 46.6505 45.2754 43.7605 45.2754H31.9667Z" fill="white"/>
<path d="M54.8759 63.3379C54.3022 63.3379 53.7709 63.0191 53.4947 62.5304C53.2184 62.0204 53.2184 61.4254 53.5159 60.9154L55.7472 57.1966C56.1934 56.4529 57.1709 56.1979 57.9359 56.6441C58.7009 57.0904 58.9347 58.0679 58.4884 58.8329L57.9146 59.7891C63.7796 58.4079 68.1784 53.1379 68.1784 46.8479C68.1784 45.9766 68.9009 45.2541 69.7722 45.2541C70.6434 45.2541 71.3659 45.9766 71.3659 46.8479C71.3447 55.9429 63.9496 63.3379 54.8759 63.3379Z" fill="white"/>
<path d="M27.25 35.7129C26.3788 35.7129 25.6562 34.9904 25.6562 34.1191C25.6562 25.0454 33.0512 17.6504 42.125 17.6504C42.6987 17.6504 43.23 17.9691 43.5062 18.4579C43.7825 18.9679 43.7825 19.5629 43.485 20.0729L41.2537 23.7916C40.8075 24.5354 39.83 24.7904 39.065 24.3441C38.3 23.8979 38.0662 22.9204 38.5125 22.1554L39.0863 21.1991C33.2213 22.5804 28.8225 27.8504 28.8225 34.1404C28.8437 34.9904 28.1212 35.7129 27.25 35.7129Z" fill="white"/>
</svg>
