<svg width="50" height="51" viewBox="0 0 50 51" fill="none" xmlns="http://www.w3.org/2000/svg">
<circle cx="25" cy="25.9941" r="25" fill="white" fill-opacity="0.2"/>
<circle cx="25" cy="25.9941" r="24" stroke="white" stroke-opacity="0.3" stroke-width="2"/>
<path d="M35.1623 19.6501C34.3989 19.9878 33.5893 20.2095 32.7603 20.3081C33.634 19.7855 34.288 18.9631 34.6003 17.9941C33.7803 18.4821 32.8813 18.8241 31.9443 19.0091C31.3149 18.3356 30.4807 17.889 29.5713 17.7387C28.6618 17.5883 27.7282 17.7426 26.9156 18.1775C26.1029 18.6125 25.4567 19.3038 25.0774 20.1439C24.6981 20.984 24.607 21.9258 24.8183 22.8231C23.1554 22.7397 21.5286 22.3076 20.0436 21.5547C18.5585 20.8019 17.2484 19.7451 16.1983 18.4531C15.8266 19.0915 15.6313 19.8173 15.6323 20.5561C15.6323 22.0061 16.3703 23.2871 17.4923 24.0371C16.8283 24.0162 16.1789 23.8368 15.5983 23.5141V23.5661C15.5985 24.5318 15.9327 25.4677 16.5441 26.2151C17.1556 26.9626 18.0068 27.4755 18.9533 27.6671C18.3369 27.8341 17.6906 27.8587 17.0633 27.7391C17.3302 28.5703 17.8503 29.2973 18.5509 29.8182C19.2515 30.3391 20.0974 30.6279 20.9703 30.6441C20.1028 31.3254 19.1095 31.829 18.0472 32.1262C16.9849 32.4234 15.8744 32.5083 14.7793 32.3761C16.691 33.6055 18.9164 34.2582 21.1893 34.2561C28.8823 34.2561 33.0893 27.8831 33.0893 22.3561C33.0893 22.1761 33.0843 21.9941 33.0763 21.8161C33.8952 21.2242 34.6019 20.4911 35.1633 19.6511L35.1623 19.6501Z" fill="#00CEC2"/>
</svg>
