<svg width="24" height="25" viewBox="0 0 24 25" fill="none" xmlns="http://www.w3.org/2000/svg">
<path d="M22.1623 6.65007C21.3989 6.98776 20.5893 7.20954 19.7603 7.30807C20.634 6.7855 21.288 5.96308 21.6003 4.99407C20.7803 5.48207 19.8813 5.82407 18.9443 6.00907C18.3149 5.33565 17.4807 4.88903 16.5713 4.73865C15.6618 4.58827 14.7282 4.74256 13.9156 5.17752C13.1029 5.61248 12.4567 6.30375 12.0774 7.14386C11.6981 7.98397 11.607 8.92585 11.8183 9.82307C10.1554 9.73972 8.52863 9.30759 7.04358 8.55473C5.55854 7.80187 4.24842 6.74512 3.1983 5.45307C2.82659 6.09152 2.63125 6.81729 2.6323 7.55607C2.6323 9.00607 3.3703 10.2871 4.4923 11.0371C3.82831 11.0162 3.17893 10.8368 2.5983 10.5141V10.5661C2.5985 11.5318 2.93267 12.4677 3.54414 13.2151C4.15562 13.9626 5.00678 14.4755 5.9533 14.6671C5.33691 14.8341 4.6906 14.8587 4.0633 14.7391C4.33016 15.5703 4.8503 16.2973 5.55089 16.8182C6.25147 17.3391 7.09742 17.6279 7.9703 17.6441C7.10278 18.3254 6.10947 18.8291 5.04718 19.1262C3.98488 19.4234 2.87442 19.5083 1.7793 19.3761C3.69099 20.6055 5.91639 21.2582 8.1893 21.2561C15.8823 21.2561 20.0893 14.8831 20.0893 9.35607C20.0893 9.17607 20.0843 8.99407 20.0763 8.81607C20.8952 8.22423 21.6019 7.49109 22.1633 6.65107L22.1623 6.65007Z" fill="#00CEC2"/>
</svg>
